<svg width="48" height="48" viewBox="0 0 48 48" fill="none" xmlns="http://www.w3.org/2000/svg">
<path d="M6.27148 9.86651L19.825 25.7253C20.0277 25.9591 20.1403 26.2581 20.1425 26.5682V36.201C20.1412 36.336 20.1823 36.4679 20.2601 36.578C20.3379 36.688 20.4484 36.7705 20.5756 36.8138L27.0169 38.9669C27.1132 38.9992 27.2157 39.0081 27.3161 38.9926C27.4164 38.9772 27.5117 38.9379 27.5939 38.878C27.6761 38.8182 27.7429 38.7395 27.7887 38.6485C27.8346 38.5576 27.8582 38.4569 27.8575 38.3549V26.5682C27.8608 26.2576 27.9749 25.9586 28.179 25.7253L41.7285 9.86651C41.8686 9.70256 41.959 9.5017 41.989 9.28772C42.019 9.07374 41.9873 8.85562 41.8976 8.6592C41.808 8.46277 41.6642 8.29628 41.4832 8.17945C41.3023 8.06262 41.0918 8.00034 40.8767 8H7.12737C6.91192 7.99957 6.70088 8.06128 6.51933 8.17781C6.33778 8.29434 6.19335 8.46079 6.10321 8.65736C6.01307 8.85394 5.98101 9.07238 6.01084 9.28672C6.04067 9.50107 6.13113 9.7023 6.27148 9.86651Z" stroke="currentColor" stroke-width="3" stroke-linecap="round" stroke-linejoin="round"/>
</svg>
