<?xml version="1.0" encoding="UTF-8"?>
<svg width="16px" height="14px" viewBox="0 0 16 14" version="1.1" xmlns="http://www.w3.org/2000/svg" xmlns:xlink="http://www.w3.org/1999/xlink">
    <title>Message</title>
    <g id="Page-1" stroke="none" stroke-width="1" fill="none" fill-rule="evenodd" stroke-linecap="round" stroke-linejoin="round">
        <g id="home" transform="translate(-1100.000000, -3567.000000)" stroke="#737373" stroke-width="1.5">
            <g id="download" transform="translate(0.000000, 3072.000000)">
                <g id="form" transform="translate(1091.000000, 316.000000)">
                    <g id="input" transform="translate(0.000000, 146.000000)">
                        <g id="Message" transform="translate(10.000000, 34.000000)">
                            <path d="M10.6874142,3.89278774 L7.70160187,6.29677753 C7.13655207,6.73978712 6.34445486,6.73978712 5.77940506,6.29677753 L2.7679634,3.89278774" id="Path_445" opacity="0.400000006"></path>
                            <path d="M3.42151031,2.89650656e-14 L10.0210527,2.89650656e-14 C10.9726245,0.0106727957 11.8783187,0.412949541 12.5272024,1.11314153 C13.1760862,1.81333353 13.5115182,2.75032071 13.4553776,3.70588237 L13.4553776,8.27539646 C13.5115182,9.23095813 13.1760862,10.1679453 12.5272024,10.8681373 C11.8783187,11.5683293 10.9726245,11.970606 10.0210527,11.9812788 L3.42151031,11.9812788 C1.37757438,11.9812788 -1.70156287e-14,10.3184655 -1.70156287e-14,8.27539646 L-1.70156287e-14,3.70588237 C-1.70156287e-14,1.66281331 1.37757438,2.89650656e-14 3.42151031,2.89650656e-14 Z" id="Rectangle_511"></path>
                        </g>
                    </g>
                </g>
            </g>
        </g>
    </g>
</svg>