<svg width="84" height="24" viewBox="0 0 84 24" fill="none" xmlns="http://www.w3.org/2000/svg"><g clip-path="url(#a)"><path d="M83.632 14.07a.51.51 0 0 0-.623.318 1.883 1.883 0 0 1-1.78 1.269 1.889 1.889 0 0 1-1.885-1.889V1.486c0-.803-.655-1.46-1.465-1.465h-2.874c-.56 0-1.041.318-1.287.782a9.284 9.284 0 0 0-3.722-.774c-4.05 0-7.504 2.585-8.802 6.193-.135-1.597-.548-3.282-1.324-5.033a.209.209 0 0 0-.021-.042C59.486.503 58.585 0 57.783 0l-3.115.026c-.623.006-.898.321-1.007.509-.188.323-.164.742.061 1.147 2.48 4.434 1.038 8.354-1.687 11.94V5.317c0-.747-.154-1.473-.464-2.159-.04-.108-.116-.249-.137-.288A5.278 5.278 0 0 0 46.742.02c-1.804 0-3.42.898-4.379 2.32A9.31 9.31 0 0 0 36.22.03c-4.04 0-7.485 2.572-8.794 6.164v-.877A5.302 5.302 0 0 0 22.13.021c-1.692 0-3.252.8-4.24 2.132A5.284 5.284 0 0 0 13.644.021c-1.69 0-3.25.8-4.24 2.132A5.27 5.27 0 0 0 5.161.021 5.271 5.271 0 0 0 .016 4.09a.508.508 0 0 0 .35.604.507.507 0 0 0 .62-.32 1.892 1.892 0 0 1 1.782-1.27c1.04 0 1.886.848 1.886 1.889v12.282c0 .795.64 1.446 1.433 1.462h2.906c.807 0 1.464-.657 1.464-1.464V5.316a5.22 5.22 0 0 0-.33-1.833 1.848 1.848 0 0 1 1.125-.379c1.04 0 1.888.848 1.888 1.889v12.282c0 .782.628 1.43 1.407 1.46l.058.002h2.874c.808 0 1.465-.657 1.465-1.464V5.316a5.22 5.22 0 0 0-.331-1.833 1.848 1.848 0 0 1 1.125-.379c1.041 0 1.886.848 1.886 1.889V17.91c-.002.021 0 .042 0 .053v.273c0 .053.008.103.024.15a5.303 5.303 0 0 0 5.269 4.819 5.271 5.271 0 0 0 5.146-4.069.506.506 0 0 0-.972-.283 1.889 1.889 0 0 1-1.78 1.269 1.888 1.888 0 0 1-1.886-1.841V12.57c1.309 3.592 4.757 6.164 8.794 6.164 5.157 0 9.353-4.196 9.353-9.353a9.31 9.31 0 0 0-2.188-6.002c.289-.172.62-.273.967-.273 1.04 0 1.886.848 1.886 1.889V17.28c0 .795.643 1.447 1.435 1.463h2.906c.018 0 .034-.006.056-.006.333 0 .68.003 1.027.006.848 0 1.7.005 2.334.013h.016c.733 0 1.833-.44 2.516-1.01 1.849-1.655 3.478-4.004 4.249-6.833.733 4.431 4.59 7.822 9.225 7.822a9.301 9.301 0 0 0 5.115-1.529 5.275 5.275 0 0 0 3.724 1.537 5.271 5.271 0 0 0 5.147-4.069.507.507 0 0 0-.352-.601l-.003-.003Zm-47.416.67c-1.716 0-3.165-2.458-3.165-5.363 0-2.909 1.449-5.364 3.165-5.364 1.717 0 3.166 2.455 3.166 5.364 0 2.908-1.45 5.363-3.166 5.363Zm33.78 0c-1.716 0-3.165-2.458-3.165-5.363 0-2.909 1.449-5.364 3.165-5.364s3.165 2.455 3.165 5.364c0 2.908-1.451 5.363-3.165 5.363Z" fill="currentColor"/></g><defs><clipPath id="a"><path fill="currentColor" d="M0 0h84v23.203H0z"/></clipPath></defs></svg>