<svg width="1040" height="1040" viewBox="0 0 1040 1040" fill="none" xmlns="http://www.w3.org/2000/svg">
<g clip-path="url(#clip0_106_50)">
<path d="M314.629 467.082C314.351 486.692 313.239 506.023 312.961 525.424H311.293C311.502 506.023 311.502 486.483 311.293 467.082H314.629Z" fill="#000042"/>
<path d="M543.048 383.706C542.701 383.288 542.423 383.984 539.713 380.368C542.215 381.689 542.145 382.941 543.048 383.706Z" fill="#000042"/>
<path d="M374.67 395.388C372.655 397.891 372.307 398.378 369.666 400.395C370.014 399.004 369.319 396.987 369.666 395.388C371.195 394.971 373.419 395.736 374.67 395.388Z" fill="#000042"/>
<path d="M311.293 467.082C311.085 450.323 308.514 432.104 309.556 414.511C311.363 384.331 322.898 370.702 350.139 358.394C384.885 342.748 460.77 334.334 496.767 345.807C500.936 347.129 502.604 350.327 506.357 350.397C507.538 338.089 520.116 332.873 517.823 318.896C504.203 313.75 497.67 306.31 482.174 307.075C448.748 308.604 420.951 311.386 387.943 301.233C365.08 294.21 329.083 274.739 358.826 250.401C385.928 228.218 450.207 227.454 483.355 232.53C494.613 234.268 505.175 238.162 516.294 240.457L516.503 248.593C524.633 248.176 533.042 260.484 533.042 267.925C533.042 279.746 519.699 287.674 510.109 291.707C476.545 305.684 418.45 305.406 385.163 290.733C371.96 284.892 357.783 275.922 364.177 259.163L374.6 247.063C337.631 260.762 350.417 282.528 380.438 293.793C416.712 307.422 455.558 303.806 493.501 302.485L582.381 345.39C586.481 347.894 618.447 339.827 613.096 333.847L527.135 293.862C523.382 288.091 534.015 286.213 538.045 281.346C550.554 266.256 537.003 256.938 524.633 249.636C522.479 248.384 520.394 249.914 521.367 245.533C545.967 249.01 557.294 277.312 533.042 291.359C542.145 301.442 552.082 292.611 562.993 289.69C611.15 276.895 662.852 276.826 710.385 292.263C714.276 281.415 731.371 283.362 729.703 295.531C741.725 289.69 747.91 287.534 761.044 291.707C783.282 298.73 784.254 315.976 759.724 318.896C762.92 324.39 767.368 328.006 768.132 334.681C768.827 340.87 764.727 376.891 762.712 382.663C761.739 385.583 746.103 399.282 742.976 401.229C737.278 404.706 718.446 411.243 711.427 413.051C670.844 423.481 625.396 419.518 584.674 412.216L586.133 827.985C583.771 850.098 563.549 871.515 548.052 886.605C536.864 897.523 527.621 894.046 517.406 901C512.542 904.268 511.638 908.579 506.426 911.639C480.297 926.937 421.646 923.46 393.363 914.49C359.66 903.781 312.475 865.466 309.556 828.263C307.193 798.57 314.143 779.795 316.366 753.231C320.049 708.935 315.741 659.007 318.034 613.181C318.937 595.797 310.946 595.588 309.626 583.071C307.61 564.366 311.085 543.713 311.293 525.563H312.961C312.475 557.829 310.946 578.204 339.785 597.953C381.619 626.533 456.67 629.453 504.689 618.119C531.026 611.93 575.362 594.476 580.644 564.018C586.828 528.206 577.516 480.085 581.477 443.022L578.072 417.223V547.259H573.069V427.236L554.723 438.919V567.286L549.72 566.313L551.387 455.608L517.962 468.334L519.699 582.237C517.614 584.949 516.711 582.237 516.364 579.803C515.182 570.763 516.85 559.22 516.433 549.693C516.294 545.729 514.765 542.113 514.626 538.15C513.862 510.682 515.321 483.006 514.626 455.538L471.541 462.423L473.001 589.747L469.665 592.181L467.997 462.145H422.967L421.299 588.078L417.963 590.581V460.545L376.268 453.87L374.6 579.734L371.265 582.167L373.002 453.244L341.244 440.518V522.226C341.244 522.226 343.955 522.504 345.414 523.825C355.977 533.63 366.748 559.707 354.656 571.528C343.746 582.167 328.041 568.538 322.134 558.872C319.632 554.769 320.258 552.475 319.146 548.511C318.59 546.494 316.227 544.964 316.227 544.756V415.554C313.309 415.206 314.629 419.309 314.559 421.395C313.934 436.624 314.768 452.062 314.559 467.29H311.224L311.293 467.082ZM426.024 237.467C406.845 239.136 337.839 255.547 378.144 280.998C408.026 299.843 477.796 299.982 509.692 286.074C537.42 273.975 532.972 257.424 507.26 246.924C483.702 237.258 451.25 235.242 426.024 237.467ZM718.098 325.363C715.041 307.492 691.969 299.982 676.403 296.157C645.618 288.717 598.086 287.813 572.999 309.508L575.501 313.681C610.664 297.757 669.454 296.783 703.574 315.628C706.007 316.949 716.847 326.615 718.029 325.363H718.098ZM578.072 293.654C571.54 293.793 563.618 296.366 557.989 299.495C555.696 300.747 553.889 299.356 554.723 303.667L561.881 305.128L578.072 293.723V293.654ZM771.468 303.667C774.734 299.356 756.458 294.141 753.817 293.793C746.451 292.889 741.517 294.975 734.776 296.992C733.595 301.998 740.614 301.303 743.532 303.598C745.756 305.336 746.173 309.3 749.231 310.134L771.398 303.667H771.468ZM579.74 298.661H574.737V301.998H577.238L579.74 298.661ZM718.098 307.005C716.708 306.727 709.412 304.154 709.759 307.005C714.415 307.84 721.086 318.827 721.364 322.929C721.642 327.449 715.875 337.254 712.608 339.827C709.829 342.052 705.103 340.522 704.756 343.652L723.102 336.976C717.403 349.215 680.017 356.029 667.23 356.933C638.878 359.02 621.644 352.9 595.445 348.728C593.5 348.45 585.091 347.198 584.744 350.258C618.03 362.427 656.737 365.834 691.483 357.837C705.173 354.708 722.893 348.589 728.036 334.403L723.102 336.906C724.353 334.194 726.785 324.251 726.437 321.191C725.742 315.489 720.461 312.916 718.098 306.866C719.905 307.283 721.434 307.909 723.102 308.535L724.769 300.19H716.43C715.875 302.902 717.264 304.641 718.098 306.866V307.005ZM573.069 301.998H570.567L564.73 308.674C568.552 309.3 570.845 307.353 573.069 304.502V301.998ZM583.076 317.019C583.493 317.505 594.82 321.956 595.654 322.025C602.325 322.443 614.764 319.035 622.2 318.687C645.688 317.644 672.581 321.469 695.166 327.588C700.1 328.91 705.52 332.317 709.69 333.082C720.183 335.029 711.149 325.502 706.98 322.373C679.6 302.137 616.223 301.581 585.369 313.611C583.632 314.307 580.644 314.237 583.006 317.088L583.076 317.019ZM726.437 307.005C726.854 325.433 739.015 339.201 748.953 353.665C768.619 334.959 745.964 312.429 726.437 307.005ZM773.136 307.005C772.024 306.032 760.349 310.204 758.125 311.247C755.624 312.429 754.025 310.969 754.79 315.35C757.153 316.81 777.236 310.552 773.136 307.005ZM755.832 322.582C759.376 328.979 760.905 336.837 759.376 344.138C758.681 347.407 755.346 350.397 755.554 353.665C769.939 345.182 764.727 329.675 755.415 318.827C754.164 317.366 751.802 313.403 749.717 316.184C750.412 318.479 755.207 321.608 755.763 322.651L755.832 322.582ZM526.37 322.025C524.355 319.522 516.155 329.605 522.201 332.039C528.733 334.612 525.884 325.502 526.37 322.025ZM706.424 335.377C673.068 324.737 637.905 320.356 603.089 325.363L617.961 334.751C619.072 340.94 611.845 341.496 609.691 345.39C636.584 349.91 664.868 352.622 691.413 344.556C693.359 343.93 709.69 338.923 706.424 335.377ZM529.706 325.363C527.343 335.933 538.115 341.357 544.647 332.873L529.706 325.363ZM547.565 335.585C546.384 335.933 542.562 338.645 543.882 340.314C549.164 343.652 555.071 347.059 561.394 347.824C556.53 344.069 555.279 333.221 547.565 335.585ZM536.377 340.383C524.077 333.012 513.167 339.479 513.236 353.526L524.703 358.741C524.911 350.327 532.138 346.572 536.377 340.453V340.383ZM744.714 358.533C746.868 355.612 736.444 340.87 733.178 338.645C730.676 353.387 714.137 361.732 701.142 365.765C679.391 372.51 656.529 372.371 634.013 371.954L589.816 364.444C601.422 375.57 620.115 377.656 635.681 378.629C672.512 380.924 712.261 376.265 744.783 358.533H744.714ZM567.301 344.417C564.938 343.026 563.062 339.897 559.727 340.314L566.815 347.546C610.108 374.248 671.747 375.5 718.098 355.265C719.419 348.172 710.176 355.404 706.841 356.586C666.049 370.632 607.467 367.781 569.316 346.85C567.996 346.155 567.718 344.695 567.232 344.417H567.301ZM543.048 383.706C559.24 397.474 550.415 416.458 534.709 426.193C540.616 429.67 549.581 437.667 556.321 434.538C557.711 433.843 572.582 420.422 573.764 418.614C577.308 413.12 583.145 397.266 576.266 392.885C574.389 391.702 571.332 391.981 568.76 390.381C565.633 388.434 562.576 383.288 558.545 380.576C548.33 373.762 506.148 352.97 494.613 349.493C454.099 337.324 359.799 347.546 326.999 376.96C323.802 379.811 314.698 395.04 314.907 399.004C315.81 415.832 326.373 425.011 339.507 433.634C341.661 423.203 351.043 425.15 359.521 425.289C358.687 422.647 355.143 422.16 352.78 419.587C343.051 408.878 337.7 387.322 354.517 381.967C348.402 391.842 341.661 401.994 352.016 411.938C349.583 400.256 351.112 389.547 359.451 381.133C358.339 380.507 355.838 381.55 354.448 381.967C363.343 367.503 387.734 361.036 404.412 357.768C436.587 351.509 518.17 351.718 539.504 380.298C538.74 379.881 536.238 380.298 534.501 379.533C531.235 378.004 528.108 374.527 524.564 374.457C536.725 382.037 547.079 393.024 544.577 408.67C548.816 407.349 548.33 401.299 547.982 397.822C547.843 396.362 543.396 384.262 542.909 383.706H543.048ZM556.391 350.397C542.006 341.774 529.498 345.321 529.984 363.47L546.384 370.354C543.882 364.791 557.92 352.344 556.391 350.397ZM722.268 348.728L719.766 351.231L720.53 351.996L723.032 349.493L722.268 348.728ZM674.735 351.996H629.705V353.665H674.735V351.996ZM570.359 364.304C571.332 363.122 575.501 362.427 573.903 360.341C562.854 349.841 549.789 359.785 551.596 373.484L562.993 378.699C563.549 373.136 566.815 368.477 570.289 364.304H570.359ZM753.956 355.334V357.003C755.068 356.447 755.068 355.89 753.956 355.334ZM744.783 393.719C760.975 385.235 760.419 371.954 761.392 355.404C744.297 364.861 747.076 376.543 744.783 393.719ZM467.163 357.003C454.516 356.029 440.757 357.768 427.97 357.003V358.672H467.163C469.318 358.672 476.197 362.844 479.672 359.506C475.78 359.715 470.36 357.281 467.163 357.003ZM744.783 363.679C749.161 364.513 748.883 360.202 751.385 357.837L750.62 357.073L744.783 360.41V363.679ZM426.302 358.741H414.628V360.41H426.302V358.741ZM412.96 360.341C410.111 359.924 407.401 360.689 404.621 361.175C402.606 361.523 397.672 361.175 397.95 363.679L412.96 360.41V360.341ZM496.35 362.01L481.34 360.341C481.548 362.566 489.123 363.053 490.999 363.192C492.875 363.331 496.697 365.139 496.35 362.01ZM359.66 395.388C366.956 382.176 401.633 372.997 415.948 370.841C455.628 364.791 507.955 369.242 538.879 397.057C541.45 392.05 531.096 383.706 526.926 380.646C492.528 355.612 398.923 355.056 365.497 382.037C360.702 385.931 354.239 391.981 354.656 398.656C355.143 399.213 358.27 395.944 359.66 395.318C359.312 395.875 359.799 397.752 359.243 399.074C354.865 408.6 353.475 405.888 359.729 417.014L363.065 416.18C362.926 412.147 363.065 405.193 365.636 401.994C367.095 400.117 369.25 400.742 369.736 400.325C369.388 401.786 366.47 407.349 369.736 407.001C369.527 405.123 370.431 404.219 371.821 403.107C374.809 400.742 391.417 388.991 392.668 388.643C397.116 387.461 405.941 388.295 410.389 386.696C412.96 385.792 412.682 382.037 414.211 381.828C417.129 381.48 422.55 384.957 426.511 383.636V378.629C416.226 379.116 405.246 381.689 395.656 385.235C388.777 387.808 381.55 393.163 374.809 395.249C392.39 373.623 445.413 371.745 472.167 375.431C494.404 378.49 537.211 389.13 532.347 418.544C557.989 398.03 506.913 380.437 490.93 376.682C436.24 363.887 407.47 374.248 359.799 395.249L359.66 395.388ZM396.351 363.679H391.348V365.348H396.351V363.679ZM501.353 363.679H498.018V365.348H501.353V363.679ZM742.281 363.679V365.348C743.393 364.791 743.393 364.235 742.281 363.679ZM389.68 365.348H386.344V367.016H389.68V365.348ZM508.025 365.348H503.021V367.016H508.025V365.348ZM739.78 365.348H736.444V367.016H739.78V365.348ZM384.677 367.016L378.005 368.685V370.285L384.677 368.616V367.016ZM582.52 368.964C578.072 370.215 569.872 381.48 574.737 386.279C583.701 395.04 591.484 378.629 587.315 370.354C585.994 368.477 584.674 368.407 582.52 368.964ZM375.504 370.354V372.023C376.616 371.467 376.616 370.911 375.504 370.354ZM519.699 370.354H516.364V372.023H519.699V370.354ZM743.115 370.354L716.639 378.907L714.763 407.001L740.614 397.057L743.046 370.354H743.115ZM372.168 372.023V373.692C373.28 373.136 373.28 372.58 372.168 372.023ZM522.201 372.023V373.692C523.313 373.136 523.313 372.58 522.201 372.023ZM368.833 373.762L361.327 379.603L362.092 380.368C363.551 377.725 369.736 376.891 368.763 373.762H368.833ZM483.008 380.368C465.982 376.96 448.679 376.543 431.306 377.03L432.973 383.706C437.838 384.679 435.336 379.394 440.757 379.047C444.023 378.838 446.941 380.368 450.416 380.437C452.848 380.437 455.35 378.629 457.018 378.56C458.407 378.56 458.06 385.235 465.357 383.706C469.526 374.735 471.333 384.888 475.78 384.957C477.031 384.957 483.077 382.523 483.008 380.298V380.368ZM601.422 378.699L593.013 377.725L588.149 387.878C593.708 387.113 602.742 386.487 601.422 378.699ZM713.095 380.368L674.735 385.375L673.068 415.345L708.161 409.574C713.651 400.882 710.107 390.103 713.095 380.368ZM494.682 383.706L484.675 382.037V387.043C485.162 387.53 494.821 386.904 494.682 383.706ZM626.161 385.583L608.927 382.037C601.561 386.765 596.279 392.676 586.481 392.12V408.739L624.771 413.746L626.23 385.653L626.161 385.583ZM430.194 389.825C428.873 388.226 429.568 379.951 428.318 389.199C430.263 395.179 434.224 399.63 438.811 403.663C437.838 400.464 435.823 396.222 434.085 393.371C432.696 391.077 431.097 391.007 430.124 389.825H430.194ZM451.319 385.375H446.316L447.984 398.726L451.319 385.375ZM496.419 390.312L510.874 395.11L528.038 406.236C520.95 395.388 509.692 386.765 496.419 385.375V390.312ZM671.4 385.375H629.705V415.415H669.732L671.4 385.375ZM481.34 388.712L470.569 395.388L461.396 403.663C464.523 402.898 471.055 401.577 473.07 399.491C474.599 397.961 474.182 395.179 475.155 394.136C476.545 392.606 482.382 393.719 481.34 388.643V388.712ZM413.029 395.388C414.141 394.484 407.053 389.477 404.69 390.381V393.65L413.029 395.318V395.388ZM428.04 403.663C425.677 399.56 419.145 397.335 414.767 396.153C416.434 403.733 421.021 403.315 428.04 403.663ZM401.355 400.395L384.677 397.057C383.912 401.368 385.302 400.047 388.29 400.882C391 401.646 399.965 404.15 401.355 400.395ZM511.36 398.726L501.353 400.395V401.994H511.36V398.656V398.726ZM486.343 400.395L473.001 405.401C477.657 405.123 486.343 407.696 486.343 400.395ZM499.686 402.064H491.347V403.733H499.686V402.064ZM401.355 405.401L379.673 403.733L387.178 407.07L401.355 405.401ZM439.645 412.008C441.66 409.365 433.877 404.567 431.306 405.332L432.973 413.677L439.645 412.008ZM464.662 415.345L466.33 407.07L456.323 410.408C453.543 413.885 462.507 415.902 464.592 415.345H464.662ZM371.334 423.69L373.002 408.67C366.817 410.686 366.122 420.491 371.334 423.69ZM376.338 412.008H399.687L378.909 408.6L376.407 412.008H376.338ZM526.37 423.69C528.525 418.197 529.081 411.869 523.104 408.67L526.37 423.69ZM421.299 412.077C415.392 409.921 409.207 410.2 402.953 410.408L404.69 415.415L421.299 412.077ZM519.699 410.408H496.35L517.128 413.816L519.63 410.408H519.699ZM543.882 410.408V412.077C544.994 411.521 544.994 410.965 543.882 410.408ZM353.822 413.677V415.345C354.934 414.789 354.934 414.233 353.822 413.677ZM542.215 413.677V415.345C543.326 414.789 543.326 414.233 542.215 413.677ZM394.684 415.415C388.638 416.458 378.353 412.425 374.67 418.683L394.684 415.415ZM446.316 415.415H439.645V422.091L446.316 418.753V415.485V415.415ZM422.967 417.084H410.597L409.624 422.091L422.967 417.084ZM420.048 428.28C424.912 430.574 431.514 419.935 436.309 417.849L416.365 423.69C416.643 424.524 419.77 428.071 420.048 428.21V428.28ZM403.023 418.753H396.351V420.422H403.023V418.753ZM468.067 420.352C478.977 429.114 491.555 422.23 473.418 419.17C471.68 418.892 467.65 417.362 468.067 420.352ZM394.684 420.422C391.139 421.326 381.619 417.571 383.009 423.76C383.495 424.107 394.614 423.342 394.684 420.422ZM491.347 438.71C484.953 433.425 475.502 428.28 468.067 424.524C464.384 422.647 460.701 420.074 456.392 420.422L464.175 430.227C477.518 424.455 478.143 441.422 491.416 438.71H491.347ZM518.031 428.697C518.865 427.723 518.101 422.647 515.252 422.369L496.419 420.422L513.584 425.428C514.626 425.915 515.46 431.617 518.101 428.697H518.031ZM319.632 422.021V527.024C323.037 525.911 321.787 521.322 325.609 518.818C328.875 516.732 332.627 516.941 336.31 517.01C334.504 493.228 338.743 466.039 336.38 442.743C335.477 433.495 326.095 428.071 319.632 422.021ZM437.977 423.69C436.796 422.438 428.804 429.184 427.206 430.435C424.218 432.8 418.241 436.346 417.963 440.379C429.568 443.091 427.345 426.958 436.726 428.697L437.907 423.69H437.977ZM398.019 425.428C394.684 424.942 391.556 425.915 388.36 426.611C386.414 427.028 381.619 426.263 383.078 429.601C384.121 432.035 387.317 433.008 389.68 431.27L398.089 425.498L398.019 425.428ZM513.028 428.766L493.014 425.428L510.526 433.773L513.028 428.766ZM411.362 427.028C406.567 427.445 400.66 429.253 396.351 431.27C393.85 432.452 392.251 430.992 393.016 435.372C399.27 435.651 407.4 432.104 411.362 427.028ZM464.662 442.048C466.191 440.449 455.767 424.246 452.987 427.028C452.848 429.74 462.299 444.482 464.662 442.048ZM504.55 433.843L484.675 427.028L497.392 438.432L504.689 438.71L504.55 433.843ZM344.649 433.703C350.626 435.025 356.463 436.276 361.258 431.2C361.258 428.071 343.468 425.846 344.649 433.703ZM509.692 450.393C503.508 449.906 498.296 442.465 492.25 442.257C483.702 441.979 467.302 446.707 457.226 447.124C432.557 448.167 403.648 443.717 380.438 435.442C375.226 433.564 370.778 430.435 365.497 428.697C363.899 436.555 358.756 438.154 351.321 438.78L376.338 449.628C419.145 459.989 460.145 461.31 503.438 453.313C505.245 452.966 510.04 452.966 509.762 450.462L509.692 450.393ZM551.387 448.724C554.098 435.998 537.281 432.939 528.038 428.766L528.386 436.763L551.387 448.793V448.724ZM417.963 430.366L404.621 436.207C407.053 442.048 418.311 435.233 417.963 430.366ZM548.052 450.393C539.296 446.499 521.992 441.909 524.703 430.366C516.85 434.26 510.526 440.935 501.353 442.048L516.503 451.088L518.031 463.744C520.464 462.492 549.859 452.896 548.052 450.393ZM326.304 525.424C329.153 525.424 331.932 525.216 334.712 526.189C337.144 527.024 339.021 530.292 341.244 529.597C339.021 527.024 336.727 525.077 333.392 524.103C331.932 523.686 325.887 522.365 326.234 525.424H326.304ZM342.148 532.1V533.769C343.26 533.213 343.26 532.656 342.148 532.1ZM336.102 560.193C341.939 553.17 338.326 530.431 327.415 533.908C319.215 536.55 321.161 566.104 336.102 560.193ZM349.653 550.388V543.713H347.985V550.388H349.653ZM337.978 563.74L344.371 560.958L344.58 548.72L337.909 563.74H337.978ZM351.321 562.071V552.057H349.653V562.071H351.321ZM349.653 567.078V563.74H347.985V567.078H349.653ZM581.408 832.991V575.422C578.628 576.118 578.559 580.29 576.405 582.932C530.748 638.91 403.856 639.397 345.205 605.741C333.461 598.996 323.315 589.886 315.463 578.76C309.626 585.297 321.3 595.31 321.3 596.284V829.723L317.131 832.226L314.559 829.723C321.439 882.711 389.541 903.294 435.406 905.659C481.27 908.023 572.93 886.466 581.338 833.061L581.408 832.991ZM317.965 820.474V768.808C315.532 768.46 315.393 773.328 315.115 775.136C312.961 787.931 313.587 799.891 314.837 812.825C314.976 814.494 315.532 820.683 317.965 820.544V820.474ZM392.599 902.599C391.278 901.347 377.866 898.427 374.67 897.175C373.211 904.129 394.822 911.778 396.351 910.457C394.406 908.718 393.502 903.433 392.599 902.599ZM499.686 908.857C506.148 909.692 508.233 903.92 511.291 899.678C503.16 899.261 502.326 902.043 499.686 908.857ZM493.014 903.851L467.997 907.188V917.202C477.587 914.351 491.764 916.924 493.014 903.851ZM426.024 909.205L401.355 905.519C403.231 907.119 404.412 912.891 405.038 913.447C405.941 914.212 427.136 917.897 428.04 917.132L426.024 909.135V909.205ZM459.658 908.857H434.641C434.433 924.295 449.513 918.106 459.589 917.132V908.857H459.658Z" fill="#000042"/>
<path d="M478.004 146.928C478.977 147.971 496.697 142.13 500.519 141.922C504.55 141.713 503.369 144.216 502.187 146.928L448.47 194.979C442.077 192.615 389.611 175.926 389.611 172.727C389.611 166.399 414.211 165.773 418.936 162.018C421.924 153.117 416.712 113.898 421.299 109.378C425.885 104.858 465.357 101.381 474.043 97L478.074 99.4338V146.928H478.004ZM473.001 101.937L423.036 112.02C421.299 113.828 426.858 153.952 424.287 162.505C422.063 170.015 403.648 166.955 399.617 173.631L448.47 190.112L493.014 149.501C489.679 147.276 473.001 155.829 473.001 149.501V101.937Z" fill="#E66B23"/>
<path d="M366.331 630.427C368.346 628.132 393.571 641.066 398.088 642.874C433.599 657.408 470.29 669.09 508.094 676.252C519.56 680.981 514.765 689.604 514.626 697.879C514.348 725.833 513.931 753.509 512.958 781.255C512.541 792.451 515.46 819.084 510.457 827.081C505.87 834.452 485.023 847.177 476.823 851.836C443.467 870.681 406.775 880.833 368.276 873.532C367.929 872.419 366.261 870.264 366.261 869.638V630.427H366.331ZM388.012 642.109L369.666 635.434L371.334 865.466L397.88 841.058C398.297 839.25 392.738 834.243 391.487 831.114C386.414 818.597 388.638 754.552 388.082 736.194C387.595 720.2 386.831 703.998 386.414 687.865C386.066 673.61 380.716 655.53 388.012 642.109ZM373.002 870.472C410.18 876.244 448.678 864.283 480.228 845.16C484.814 842.379 504.202 829.375 506.218 826.107C508.024 823.186 509.553 809.07 509.831 804.689C511.221 782.02 509.275 757.473 509.692 734.525C509.97 719.088 513.445 701.842 511.499 686.127C511.291 684.18 511.638 682.58 509.762 681.19C507.052 679.173 469.04 671.732 461.395 669.577C437.004 662.692 413.863 652.888 389.68 645.377C387.039 652.54 389.541 658.451 389.68 664.57C390.444 711.021 390.514 759.907 393.016 806.219C393.294 811.782 393.919 823.047 394.753 827.845C395.656 833.2 402.744 836.607 401.424 842.796L373.002 870.403V870.472Z" fill="#000042"/>
</g>
<defs>
<clipPath id="clip0_106_50">
<rect width="469" height="825" fill="white" transform="translate(309 97)"/>
</clipPath>
</defs>
</svg>
