<svg xmlns="http://www.w3.org/2000/svg" width="1040" height="1040" fill="none" viewBox="0 0 1040 1040"><g clip-path="url(#a)"><path fill="#fff" d="M802.369 189.69c3.845-12.196 24.885-8.639 21.983 5.445 9.577-4.138 18.937-6.244 29.457-5.01 25.973 3.049 40.121 26.788 6.312 31.144-1.379 1.887 8.271 10.817 8.488 16.407.218 8.638-4.498 39.637-6.892 48.639-5.151 19.02-35.406 30.998-52.818 35.934-14.221 4.066-37.437 7.623-52.311 8.639-33.809 2.251-70.666-3.049-103.532-10.453v94.955l1.814 13.793v376.118c-.798 8.929-6.022 21.633-10.81 29.256-5.369 8.566-36.132 42.105-44.33 46.171-9.069 4.501-18.864 1.306-28.513 9.727-3.192 2.832-4.934 7.405-8.126 9.293-4.353 2.54-17.485 5.226-23.144 6.461-50.714 11.252-120.945 4.138-160.196-33.031-39.541-37.387-47.594-55.391-43.459-111.435 1.088-15.317 7.546-30.78 8.779-45.227 4.788-57.423-3.773-121.307 0-179.383-10.23-17.133-10.81-34.483-6.965-53.794 3.918-57.641-5.442-122.686-.145-179.456 1.523-16.697 18.428-29.982 31.995-37.605 42.516-24.101 113.763-29.619 161.937-23.811 12.189 1.452 22.637 4.864 34.173 8.494-1.161-9.002 8.271-13.866 11.245-19.238 3.12-5.735 5.659-18.657 10.23-23.739 1.741-1.96 22.056-13.866 25.611-15.318 20.097-8.421 52.093-13.72 73.859-14.882 39.033-2.105 77.848 2.831 115.576 12.051l-.218-.145Zm-116.374-3.267h-8.706v1.742h8.706v-1.742Zm-10.448 1.742h-6.965v1.743h6.965v-1.743Zm-33.084 17.423 2.902-8.421c-17.049 7.768-21.112 16.116-11.608 32.813-.653-.363-2.322-.145-3.482-.871-2.685-1.742-2.975-7.477-5.297-5.227 2.394 14.52 16.107 21.997 28.441 27.296 38.307 16.407 118.696 21.271 154.899-.653 7.763-4.719 10.448-7.26 13.35-16.189l-5.151 2.614c-.871-4.356 3.047-7.55 3.482-11.47 1.161-11.035-10.592-13.939-12.189-19.892 2.612.799 5.732-.145 7.836 3.485 3.628-2.541 2.612-6.534 2.612-10.381H807.81c.291 2.105-.507 5.154 0 6.969-2.249-.653-10.737-4.719-10.447-1.742 13.93 5.88 21.766 22.504 8.561 33.829l-20.75 11.398c8.997.871 15.962-5.155 23.435-8.784 1.668-.799 4.861-3.267 6.166-.799-4.715 4.719-12.333 8.566-18.646 10.962-38.96 14.374-109.481 11.18-146.773-7.405-8.271-4.138-11.101-5.154-15.599-13.067 7.763 4.428 15.744 10.381 24.378 12.196-6.24-5.88-18.864-9.728-21.839-19.02-3.119-9.8-1.741-13.575 6.167-17.495-.58 1.524-7.037 14.591-.87 12.196 4.063-1.598 9.432-6.534 15.599-8.784 36.276-13.068 102.371-10.019 136.761 7.84 2.539 1.307 14.51 10.817 15.599 9.655.725-15.172-19.517-24.102-31.706-28.312-44.474-15.318-93.592-13.213-135.383 7.477v-.218Zm24.378-15.68h-5.224v3.484l5.224-1.742v-1.742Zm153.158 1.742-13.857-.871c3.192 4.864 10.883 7.042 13.857.871Zm-194.948 1.742h-3.483v1.743h3.483v-1.743Zm17.412 0c-19.952 3.34-52.6 14.447-50.206 39.783 3.773.508 8.344 4.791 11.463 5.227 9.94 1.451 21.258-26.425 24.813-33.685l13.93-11.325Zm137.487 0h-3.482v1.743h3.482v-1.743Zm48.756 6.969c7.327-.943 15.236 9.946 18.283 10.527 3.772.726 26.989-5.663 26.917-7.913-12.479-9.22-32.939-14.301-45.2-2.614Zm-208.879-5.226h-3.483v1.742h3.483v-1.742Zm165.347 0h-3.482v1.742h3.482v-1.742Zm-170.571 1.742h-2.612l-2.612 2.613 5.152-.871v-1.742h.072Zm173.183 0v1.742c1.161-.581 1.161-1.161 0-1.742Zm7.836 1.742-5.224.871 2.612 2.614h2.612v-3.485Zm-188.854 1.742v1.743c1.16-.581 1.16-1.162 0-1.743Zm-6.965 5.227v1.743c1.16-.581 1.16-1.162 0-1.743Zm40.919 15.681c-1.378 1.96 4.281 7.913 6.312 8.276 2.249.435 26.917-5.88 32.866-6.534 26.555-3.049 58.55-1.161 84.742 3.993 6.675 1.307 33.882 10.526 36.711 9.655 1.959-.581 3.555-2.613 4.644-4.283-8.924-13.938-29.747-19.093-45.128-22.432-37.655-8.131-86.047-8.348-120.147 11.398v-.073Zm-52.238 8.639c-1.741-9.075 5.659-14.737 7.909-22.577-5.95 2.613-13.132 14.083-14.801 20.036-1.234 4.356 4.861 2.178 6.892 2.541Zm254.152 27.877c13.93-5.518 14.583-20.327 6.674-31.87-3.047-4.428-22.346-19.383-26.626-18.584-5.224 1.016 1.523 20.98 3.047 24.755 3.773 9.147 14.075 15.898 16.905 25.771v-.072Zm33.084-50.454-22.637 7.84c3.555 5.009 16.179.145 20.46-2.178 3.41-1.815 2.249-1.742 2.177-5.662Zm-33.955 5.226v1.743c1.161-.581 1.161-1.162 0-1.743Zm8.996 7.55c2.685 7.115 7.909 13.068 7.619 21.126-.291 8.058-6.603 12.777-7.909 20.036 9.214-4.283 13.785-13.43 13.205-23.448-.363-6.461-11.899-21.271-19.299-22.65l6.384 4.936Zm-58.622 18.585c-45.563-13.575-92.432-15.536-139.228-6.969-.798 3.992.435 2.758 2.249 3.92 27.062 16.987 106.652 21.125 134.803 6.896 2.176-1.088 2.829 0 2.249-3.847h-.073Zm-165.347 10.381c-2.177-6.824-7.255-11.397-7.836-19.165l-7.835 11.252 15.671 7.841v.072Zm-2.612-15.681v1.743c1.161-.581 1.161-1.162 0-1.743Zm-23.507 7.042c-8.416-2.541-15.018-8.421-22.709-.508-10.012 10.381-4.571 18.875 8.779 19.601l2.685-8.639 11.245-10.454Zm25.248-3.484-.798.798 4.353 6.098.799-.798-4.354-6.098Zm34.826 5.154v1.742c1.16-.581 1.16-1.161 0-1.742Zm.87 24.392c-.725 3.557 1.814 4.065 3.991 5.517 30.472 20.763 128.853 11.833 162.517-3.484 19.662-9.002 8.706-12.85-.29-26.352-6.965 16.987-22.854 23.593-39.614 28.239-40.629 11.325-86.482 7.332-126.676-3.92h.072Zm154.9-15.681c-7.328 2.541-13.858 6.534-21.258 9.147-41.355 14.447-109.554 10.454-149.241-8.348-5.006-2.396-8.633-6.824-13.93-7.768-2.684 2.686 8.199 9.002 9.94 10.091 37.945 22.94 126.096 26.425 165.347 5.953l9.214-9.075h-.072Zm-149.676-6.969h-3.483v1.743h3.483v-1.743Zm-38.961 42.469c-8.126-5.953-27.134-12.051-37.727-17.133-12.697-6.098-25.248-15.245-39.904-19.31-44.039-12.051-159.325-3.049-194.513 29.328-2.684 2.469-12.697 19.311-12.769 22.941-.218 19.746 13.059 25.698 25.321 37.459h2.539c-.073-10.744 14.873-10.599 22.636-8.712-39.105-31.579-4.425-56.552 29.602-67.005 42.878-13.14 98.091-12.559 141.042 0 35.26 10.236 76.325 37.604 31.342 69.619l20.025 11.325c14.293-8.567 34.535-21.343 32.141-40.726-1.379-11.325-7.401-5.518-10.375-7.042-1.669-.799-6.603-8.784-9.36-10.744Zm-4.57-35.5c-16.397-8.929-28.876-7.041-32.939 12.777l18.065 9.801c3.555-3.921 4.063-9.002 7.473-13.431 2.83-3.629 7.546-4.791 7.401-9.074v-.073Zm50.496-5.226h-5.224v1.742h5.224v-1.742Zm-44.402 3.484v1.742c1.161-.58 1.161-1.161 0-1.742Zm154.029 0c-3.047.436-11.028-.145-12.189 3.412 3.337-.073 11.028.653 12.189-3.412Zm-13.93 3.485h-12.189v1.742h12.189v-1.742Zm-13.93 1.742h-41.791v1.742h41.791V254.3Zm-111.368 6.969c-15.019-8.276-25.321-4.21-29.384 12.85l15.454 7.985 3.772-11.034 10.158-9.873v.072Zm-114.923-1.742-53.979-1.742c-1.234 6.969 11.826 1.597 16.541 1.597 4.716 0 8.344 1.815 12.189 1.887 6.312.145 12.842.291 19.154 0 2.104-.072 6.457 1.307 6.095-1.742Zm-55.721 0c-3.192.072-6.384-.218-9.577 0-2.104.145-6.457-1.307-6.094 1.742 3.192-.072 6.385.218 9.577 0 2.104-.145 6.457 1.307 6.094-1.742Zm365.592 45.227c3.918-3.63 14.438-9.437 16.47-13.938 3.555-8.059 1.596-22.36 4.353-31.289l-16.542 12.123-4.281 33.104Zm-382.932-43.485h-8.706v1.742h8.706v-1.742Zm83.508 0h-8.706v1.742h8.706v-1.742Zm305.881 4.719s2.395-3.993 1.379-4.646l-14.801 10.381c3.7.363 11.101-3.194 13.422-5.735Zm-399.836-2.977h-6.965v1.743h6.965v-1.743Zm-48.756 34.774c35.406-28.603 99.107-30.127 142.784-21.779 23.942 4.574 47.449 12.487 64.354 30.49-4.208-24.61-41.138-35.209-62.541-39.274-35.478-6.751-128.78-7.477-150.546 27.151-1.233 1.96-5.441 9.437-.943 10.381-.29-6.026 5.441-5.663 6.965-6.969-.508.363-6.022 9.8-6.24 10.381-2.611 7.985 1.742 11.615 7.909 15.753-2.032-15.608 6.82-23.521 19.154-30.49 28.005-15.826 72.117-18.004 103.604-14.737 5.877.581 11.754 2.541 17.631 3.267 1.886.218 6.239 1.597 5.876-1.525-45.49-8.784-103.822-8.638-144.016 16.988-1.161.726-3.41 0-3.918.435l-.073-.072Zm151.417-34.774h-6.965v1.743h6.965v-1.743Zm-111.368 1.743h-5.223v1.742h5.223v-1.742Zm118.333 0h-5.223v1.742h5.223v-1.742Zm-125.298 1.742h-3.482v1.742h3.482v-1.742Zm127.04 1.742 12.116 2.614c-1.741-2.468-10.52-7.26-12.116-2.614Zm99.251-1.742h-6.965v1.742h6.965v-1.742Zm-231.514 1.742h-3.483v1.743h3.483v-1.743Zm218.092 2.251c-.87.871-3.773 4.936-3.12 6.388l6.966-6.896c1.958-2.832-3.628.363-3.846.508Zm-223.316-.508h-3.483v1.742h3.483v-1.742Zm-6.095 1.742v1.742c1.161-.581 1.161-1.161 0-1.742Zm162.736 0h-3.483v1.742h3.483v-1.742Zm81.621.218c-14.22-2.106-23.942 16.334-9.142 24.029 9.36-3.775 13.713-14.955 9.142-24.029Zm172.53-.218h-3.483v1.742h3.483v-1.742Zm-419.498 1.742c-21.113 6.243-41.863 24.901-24.378 46.97l-1.886-12.995c-1.452-10.744 5.441-17.06 11.173-24.755l15.018-9.22h.073Zm167.958 0v1.743c1.161-.581 1.161-1.162 0-1.743Zm256.546 34.556 3.7-34.556-32.213 12.124c-1.887 10.962-3.193 21.924-2.54 33.103l31.125-10.671h-.072ZM581.519 276.95l5.152.871-2.612-2.613h-2.612v1.742h.072Zm234.998 0h-3.483v1.742h3.483v-1.742Zm-219.326 8.711c2.539-2.468-5.95-7.114-8.634-6.098l6.094 6.098h2.612-.072Zm41.79-3.484v-3.485h-1.741v3.485h1.741Zm172.312-3.485c-2.975 1.016-11.028.145-12.189 3.412 3.047-.435 11.028.145 12.189-3.412Zm-237.754 25.336 15.816 12.922c.58-1.67-1.088-5.372-1.886-6.751-14.729-23.957-78.575-31.797-104.331-29.837-3.12.218-5.659-.508-7.69 2.686 5.078 6.17 11.608 6.824 14.8-.871h2.54c.29 4.936 3.265 5.735 7.908 5.372 4.643-.363 2.684-6.316 7.836-5.372-1.814 4.791 3.555 7.259 7.618 6.533 3.047-.508 3.99-5.88 8.053-4.864v5.082l14.801-1.67.943 5.227c3.555 1.162 8.271-2.178 11.028-1.887 1.451.145 1.523 3.412 2.902 4.356 4.643 3.121 14.002 5.299 19.807 8.929l-.145.145Zm102.008-20.109-12.189-3.485-5.223 13.939c3.555 2.178 20.459-6.389 17.412-10.381v-.073Zm-201.913-1.742c-20.025 1.524-45.926 6.098-61.742 19.165-2.902 2.396-7.763 6.316-7.836 10.381 1.524 1.452 16.687-11.325 19.299-12.922 6.892-4.283 9.577-4.356 16.469-4.646 3.265-.145 9.505-6.025 15.527-3.194l.943-5.3 12.842 3.412 4.57-6.896h-.072Zm120.074 41.742c2.104 2.323 8.561-7.042 8.634-9.582.435-13.794-42.661-33.322-55.648-32.233l22.637 9.51c12.769 6.171 26.336 16.262 24.305 32.233l.072.072Zm203.655-41.742h-8.706v1.742h8.706v-1.742Zm-160.123 5.154v-3.485h-1.742v3.485h1.742Zm165.347-1.67-43.387 5.3c-2.394 11.397-1.886 23.085-1.814 34.7l41.646-5.372 3.627-34.628h-.072Zm-198.431 1.743c-8.054-6.461 2.539 12.849 2.757 13.793l1.596 14.011c3.773-3.122 3.265-10.381 2.539-14.665-.29-1.815-6.312-12.631-6.892-13.139Zm97.51 1.742c-5.659 1.089-11.245-1.888-16.542-1.888-8.271 0-8.996 5.881-15.816 8.712-4.281 1.815-8.344 1.379-12.116 3.557l-.508 16.407 2.684 2.541 42.371 5.517v-34.846h-.073Zm-241.599 6.606c.362.653 9.722 5.227 11.826 4.646l-11.319-9.582c-1.668.217-1.088 3.92-.507 4.936Zm16.977-4.864-3.483.871c-.362 4.937 8.344 15.754 13.06 18.222l-9.65-19.093h.073Zm24.377 0h-6.965l1.742 15.681 5.223-15.681Zm252.41 0h-47.014c-1.451 11.543-2.249 23.086-1.741 34.846h47.014l1.741-34.846Zm-217.584 1.742c-1.597-1.524-19.88 12.269-20.896 15.609l10.303-2.687 10.52-12.922h.073Zm-60.944 15.681c-4.499-.581-26.192-15.463-27.861-13.938-4.063 3.702 10.666 5.953 11.826 7.477.799 1.089-.217 3.775 1.379 4.864s7.255 1.742 9.722 2.178c1.814.29 5.369 2.759 4.934-.581Zm74.874-12.196c-3.991.218-10.448 1.016-12.189 5.154 3.99-.217 10.447-1.016 12.189-5.154Zm-102.662 5.227-13.93-3.485c-.798 4.937 1.016 2.904 4.063 3.703 1.959.508 9.794 3.484 9.867-.218Zm87.861-.073v1.743c1.161-.581 1.161-1.162 0-1.743Zm-89.602 5.3-20.895-3.485c-.798 5.155 1.16 2.977 4.353 3.412 3.555.436 7.11 1.162 10.592 1.597 1.887.218 6.312 1.525 5.877-1.524h.073Zm6.965-3.485h-3.483v1.743h3.483v-1.743Zm93.955 1.743c-5.006.435-10.085 1.814-14.801 3.412-1.958.653-6.312.943-6.021 3.484 3.845-.435 9.359 1.016 12.841-.218 2.177-.798 2.177-3.775 3.265-4.501 1.887-1.161 5.297.944 4.716-2.177Zm22.637-.073c-.508-.436-12.044 1.089-12.189 3.485 3.7-.944 13.64 2.976 12.189-3.485Zm-132.264 5.299-19.153-1.742 4.28 3.485 14.801-1.743h.072Zm31.343 1.67-20.895-3.484c1.306 7.477 8.198 5.517 14.801 5.226 2.104-.072 6.457 1.307 6.021-1.742h.073Zm44.33-3.484v1.742c1.16-.581 1.16-1.162 0-1.742Zm42.66.072h-8.706v1.742h8.706v-1.742Zm-67.836 10.381c1.596-4.573-8.997-8.348-10.448-6.969l1.742 8.712 8.633-1.743h.073Zm35.623-6.969v1.742c1.161-.58 1.161-1.161 0-1.742Zm-120.074 1.742v1.743c1.161-.581 1.161-1.162 0-1.743Zm115.721 0-15.671 4.356c2.757 3.194 6.892 4.646 11.1 4.501l4.571-8.857Zm27.86 0-19.154 3.485 19.154 1.742v-5.227Zm-139.228 15.681 1.741-13.938c-5.586 1.96-8.126 10.816-1.741 13.938Zm31.343-13.938H412.69v1.742h26.119v-1.742Zm29.601 1.742c-6.385.508-13.857-.799-20.024 0-2.54.29-5.442 1.307-2.54 3.485l11.101-.218 11.536-3.267h-.073Zm111.368 0h-27.86l14.728 3.557c3.773-1.234 14.511 3.049 13.132-3.557Zm3.483 15.681c7.11-3.267 7.182-11.18.87-15.681l-.87 15.681ZM343.039 471.869V318.692h-1.741v176.625c0 14.665 23.289 33.104 34.97 39.928 61.162 35.644 178.479 35.354 239.496-.436 10.23-6.025 33.664-25.045 33.664-37.749V318.692h-1.741c1.161 3.412-3.482 9.801-3.482 11.325v147.079h-3.483V332.631c-5.151 3.412-21.693 12.922-22.636 18.294-3.12 46.388 4.861 98.875-1.814 144.392-.435 3.049.871 2.904-3.41 2.614V367.404l-38.163 13.285c-.29 1.524 1.597 2.831 1.597 3.267v129.656l-3.483-2.614-1.741-147.079-48.828 7.986 1.886 149.402-5.223 1.016-1.742-151.434h-52.237l-1.742 148.821-3.482 2.613V369.146l-48.755-6.969v98.44c-4.281 15.535.217 33.321-1.742 48.711-.29 2.541-1.306 5.372-3.482 2.541l1.451-150.273c-1.088-3.412-30.327-14.664-36.276-15.1v93.141c0 .871 9.794 9.655 11.898 12.486 9.287 12.704 15.962 34.12 4.498 47.405-11.463 13.285-29.528-1.597-36.348-12.123-3.555-5.518-2.685-9.873-4.499-14.302-.798-2.032-3.337-1.089-3.41-1.234Zm99.252-151.434H412.69l-.871 5.154 30.472-5.154Zm52.165 0c-11.1 4.065-22.781 6.678-33.954 10.381-1.959.653-6.312 1.016-6.022 3.484l7.618-1.887 1.959 3.702 19.226-10.599 4.934 3.412c3.555-2.904 7.69-2.831 6.239-8.566v.073Zm33.084 0h-5.223v1.742h5.223v-1.742Zm-55.647 1.742c-5.587-.508-11.028 1.016-16.47 1.815-2.757.435-6.892-1.96-6.094 2.541l6.965 1.887 15.599-6.243Zm73.06 0c-3.192 0-6.385-.145-9.577 0-2.104 0-6.457-1.307-6.094 1.742 3.845-.29 16.687 5.88 15.671-1.742Zm34.825 1.742-31.343-1.742 26.99 5.227c3.773.363 5.006.798 4.353-3.485Zm-233.256 1.742v123.558c6.385-5.953 10.52-16.043 20.895-10.454-2.177-28.675 2.902-61.561.145-89.728-1.161-11.615-13.567-15.608-20.968-23.376h-.072Zm196.69 20.908c-.436-2.613-3.265-3.267-5.152-4.356-6.674-3.92-17.993-10.091-24.958-13.357-2.104-1.017-5.804-2.614-8.125-2.323l9.722 12.994c12.116-9.8 14.365 10.817 28.513 7.042Zm-3.483-17.423-20.895-3.485c1.233 2.977 12.552 8.857 14.728 8.785.871 0 .798-2.614 1.524-2.977 2.104-1.161 5.151.581 4.643-2.323Zm-106.144-1.742c-6.82.944-20.46-3.993-19.154 6.969l4.716-3.412 14.365-3.557h.073Zm142.275 3.92c-3.482-2.831-21.838-3.267-27.352-3.92l21.475 5.517c5.224 9.51 12.334 3.485 5.95-1.597h-.073Zm-91.851-.436-22.564 14.81c8.561 8.494 12.334-10.672 22.491-7.913v-6.824l.073-.073Zm87.063 12.196c.58-.508.29-5.444-1.741-6.098l-27.861-6.098 20.46 8.204c1.451 2.758 6.748 6.243 9.142 3.992Zm-134.005-10.453c-4.135-.436-7.908.145-11.898 1.234-3.047.871-4.498-.581-3.773 3.92l6.82.871 8.851-6.098v.073Zm76.543 17.423-2.757-6.752-7.618-10.599c-3.265 4.283 7.401 20.545 10.448 17.423l-.073-.072Zm-118.333-15.681c-3.337.363-20.895-1.525-20.822 2.613 5.223 5.663 19.444 6.244 20.822-2.613Zm168.83 24.392c-5.804-1.161-12.407-8.276-18.211-8.494-11.1-.363-30.835 4.647-43.531 5.082-13.568.436-33.229-1.815-46.797-3.847-19.444-2.904-38.307-8.857-55.938-17.133-1.741 8.857-8.416 10.309-16.542 10.454l26.119 11.325c36.059 7.913 75.237 13.865 112.311 11.252 13.568-.944 27.933-5.953 41.791-5.227l.87-3.485-.072.073Zm-111.368-24.392c-5.151.653-11.101 2.323-16.034 3.993-1.814.58-5.297.363-4.861 2.904 6.892 2.831 16.542-1.307 20.895-6.897Zm85.249 1.742c2.757 2.831 20.75 18.294 22.636 9.51 1.016-4.791-19.009-9.074-22.636-9.51Zm48.755 10.454c-.29-.363-4.861 1.234-4.353-6.969l-21.766 10.454c-3.192 4.355 11.536 7.84 13.06 10.381 2.104 3.412.362 9.873.87 13.938l34.825-10.454c.871-4.065-.58-2.758-2.249-3.847-9.359-6.098-12.334-3.775-20.387-13.503l27.86 12.196c-.145-3.702 1.161-8.494-1.741-11.325-1.959-1.887-24.813-12.559-26.119-11.252v10.454-.073Zm-125.298-8.711c-3.12-.654-5.079 1.016-7.545 1.96-2.032.726-7.691 2.686-8.054 4.936 4.644.508 15.454 0 15.672-6.969l-.073.073Zm-99.252 106.207h-6.965v1.742h6.965v-1.742Zm2.612 1.742c.581 4.283 6.312 7.115 8.706 10.381-.507-4.283-6.312-7.114-8.706-10.381Zm-6.675 8.929c-10.52 1.961-11.028 33.031 1.451 32.959 16.034 0 9.722-35.064-1.451-32.959Zm17.123 3.195v1.742c1.161-.581 1.161-1.162 0-1.742Zm1.741 3.484v1.743c1.161-.581 1.161-1.162 0-1.743Zm2.612 6.969V464.9h-1.741v3.484h1.741Zm-5.659 22.142c1.378-1.67 2.321-8.276 2.249-10.744 0-1.888-1.088-10.744-3.555-11.398 1.959 9.583-3.41 15.754-5.224 24.32.726.726 5.732-1.234 6.53-2.178Zm5.659 2.251c7.11-4.574 2.322-15.899 1.741-22.65-3.12-.363-1.741 3.92-1.523 5.88.725 6.243 1.451 10.091-.218 16.77Zm-6.965 6.896h2.612l4.353-4.356-.798-.798-6.095 3.484v1.67h-.072Zm276.787 10.454c-8.343 9.22-15.889 18.004-26.264 25.118-61.234 42.105-205.178 41.67-263.51-5.953l-18.283-20.835c-3.7 14.955 8.561 18.73 8.779 32.16.072 5.808-1.814 10.381-1.959 15.608-2.177 83.122 1.813 166.68 0 249.874h-5.224l-1.741-5.227c.29 57.206 73.278 83.122 120.945 88.712 63.555 7.478 183.049-12.268 188.926-93.067 1.016-13.794-1.741-27.151-1.886-40.001-.943-82.105.87-164.283 0-246.316l.217-.073ZM344.781 793.831v-53.939h-1.742c1.524 3.267-1.741 8.058-1.741 9.583v36.515c0 1.234 2.83 5.082 1.741 7.841h1.742Zm42.661 76.661c.362 6.388 7.255 10.453 13.059 11.324-3.628-5.589-7.038-8.421-13.059-11.324Zm47.884 27.804c-5.079-12.995-15.018-15.1-27.86-17.351 5.079 11.325 16.107 15.681 27.86 17.351Zm134.005-13.939c-12.117-.072-13.132 3.848-17.413 13.866 9.069.726 12.697-7.985 17.413-13.866Zm-100.994 8.784-29.528-3.557 5.586 11.761c8.561 1.234 16.977 4.355 25.756 3.847l-1.814-12.123v.072Zm78.357-3.557c-9.867 1.234-19.516 4.356-29.601 3.485v12.196l25.828-3.775 3.773-11.833v-.073Zm-38.308 5.227h-29.601c.145 4.065-.725 11.761 4.281 12.269 7.11.798 16.034-.654 23.362-.291l1.886-11.978h.072Z"/><path fill="#E66B23" d="M380.912 145.116c4.28 11.543 17.775 28.385 20.532 39.492.798 3.122.798 3.194-1.886 5.3-8.562-2.396-18.211-11.325-27.353-10.164-9.141 1.162-57.896 18.803-64.861 24.029-10.811 8.059-15.599 20.763-16.615 33.903l3.555 72.305c-6.457.581-11.971-3.267-17.412-6.026-19.299-9.655-37.51-22.069-56.591-32.232L216 197.748c2.031-41.742 48.61-44.937 80.025-54.882-3.047-7.042-17.63-5.155-15.671-13.866l100.558 16.116Zm-79.663-9.147h-3.482v1.742h3.482v-1.742ZM289.06 304.754c0-23.811-4.063-50.091-1.741-73.975 1.669-16.842 11.536-29.038 26.627-36.007 9.867-4.574 48.828-19.02 58.259-20.255 7.038-.943 15.236 6.244 22.201 8.349l-16.614-33.83-74.802-11.397 1.742 6.969c-19.082 6.171-42.371 10.526-60.364 18.802-26.844 12.414-23.434 32.886-23.217 58.803l3.918 47.477 64.064 35.137-.073-.073Z"/><path fill="#fff" d="M400.501 569.365c2.394-2.759 28.368 11.035 33.156 12.995 31.706 13.139 64.064 24.101 97.076 33.466 7.618 2.178 36.929 7.115 39.541 12.704.943 1.888 1.015 3.921.943 6.026-2.539 49.147 2.031 102.94-1.741 151.58-1.234 15.753-8.634 19.746-20.388 28.312-29.166 21.27-74.729 40.145-111.005 42.178-5.151.29-37.509-.653-37.509-6.171v-281.09h-.073Zm3.482 276.735 32.939-28.966c.363-1.742-7.255-9.22-8.198-14.084-.943-4.864-1.814-15.245-2.104-20.544-3.192-51.471-2.467-106.643-3.483-158.331-.29-12.995-5.078-26.715 1.524-39.855l-20.678-11.47V846.1Zm9.577 5.226c9.36 1.38 24.596 0 34.826 0 26.699 0 89.674-30.417 109.626-48.711 10.158-9.365 5.587-35.282 6.095-49.583 1.088-30.49 2.612-61.706 3.555-92.196.29-10.236 3.337-29.402-7.038-33.177-15.671-5.735-38.162-9.074-55.357-14.301-25.829-7.913-51.295-17.568-76.035-28.385-1.451 0-2.54 6.171-2.685 7.84-2.974 34.338 2.395 76.444 3.555 111.362 1.016 29.184-1.378 63.812 1.669 92.342.943 8.639 9.214 16.479 8.779 20.762-.58 6.171-26.264 25.481-31.415 31.434-.218.508 3.918 2.541 4.353 2.613h.072Z"/></g><defs><clipPath id="a"><path fill="#fff" d="M216 129h664v782H216z"/></clipPath></defs></svg>

