<svg width="1040" height="1040" viewBox="0 0 1040 1040" fill="none" xmlns="http://www.w3.org/2000/svg">
<g clip-path="url(#clip0_106_50)">
<path d="M660.517 495.566V735.111L658.716 747.084C655.185 776.585 666.21 824.264 652.734 850.086C647.618 859.896 618.505 893.22 608.992 896.322C603.587 898.053 596.814 897.404 590.832 900.649C581.824 905.482 582.833 910.892 568.853 914.931C504.285 933.685 441.085 914.715 399.433 862.997C382.642 842.152 383.507 814.67 385.597 788.703C386.462 777.956 391.506 767.209 392.515 757.543C395.181 732.514 393.956 694.069 394.316 667.669C394.605 647.761 396.695 616.961 394.316 598.352C393.596 592.653 389.416 590.129 388.119 585.513C384.732 573.106 388.912 558.824 389.128 546.634C389.849 507.251 389.272 468.301 390.857 429.062C391.722 408.433 386.173 390.328 403.685 374.46C435.969 345.247 531.885 339.188 572.312 349.358C576.78 350.44 581.969 352.027 585.211 355.489L586.076 352.893C555.594 334.067 522.589 313.221 496.142 288.913C484.756 278.454 480.648 269.871 471.928 259.484C463.209 249.097 441.518 234.383 446.346 218.37C447.715 213.754 457.011 208.199 456.435 202.501C455.642 194.062 437.122 193.413 441.734 179.131C446.706 163.695 467.244 181.8 475.315 185.118C485.188 189.229 497.943 191.032 508.176 195.505C554.368 215.557 653.743 284.874 682.496 325.483C684.514 328.296 689.054 334.283 690.135 336.952C694.459 347.627 676.515 366.165 671.687 376.335C670.03 379.797 670.318 384.053 668.228 388.381C666.426 392.132 661.094 396.027 660.589 398.118C660.013 400.426 662.391 407.279 662.175 411.679C661.526 427.98 658.211 445.436 660.229 461.881C661.382 471.619 686.388 475.586 686.388 482.511C686.388 489.435 666.859 497.009 660.373 495.494L660.517 495.566ZM472.072 192.908C476.54 188.652 458.597 179.564 456.002 178.698C452.183 177.4 449.229 175.741 446.13 179.997L464.146 191.321L472 192.98L472.072 192.908ZM476.252 206.108C469.262 198.101 460.687 190.311 449.589 188.58C459.461 196.875 464.722 209.714 478.918 208.488C479.567 205.891 477.117 207.118 476.252 206.108ZM475.532 191.177L475.387 198.967C480.071 202.068 500.681 226.448 504.068 225.727C505.942 225.366 507.095 222.842 505.87 220.534C504.933 218.658 477.189 189.806 475.604 191.177H475.532ZM501.474 196.37L482.522 192.042C490.16 198.101 497.295 214.114 501.474 196.37ZM536.064 213.681L506.014 200.049C491.602 210.291 507.96 213.393 509.906 220.101C510.626 222.553 507.816 229.911 506.374 230.704C504.068 232.002 489.151 223.419 489.368 230.055C489.368 231.57 511.995 243.904 515.815 242.822C518.265 242.101 537.145 215.196 536.064 213.681ZM461.695 215.413C461.84 213.465 465.371 204.881 460.831 206.757L451.318 218.803C452.615 219.885 459.606 216.278 461.695 215.34C461.623 216.999 461.407 218.73 461.84 220.317L473.73 223.996C474.595 219.885 472.289 214.475 468.541 212.672C465.154 211.085 464.001 214.403 461.695 215.413ZM478.991 211.95C472.217 206.324 478.126 230.92 482.45 225.799L478.991 211.95ZM540.316 217.432C536.641 221.832 519.346 243.183 520.571 247.15L555.594 268.861L575.771 240.586L540.316 217.432ZM461.695 222.337H449.589L451.318 232.652C454.994 232.652 451.607 226.737 454.633 224.789C457.011 223.203 461.912 225.727 461.623 222.337H461.695ZM478.63 241.019C485.116 230.488 463.425 226.521 456.579 227.53C453.768 230.271 468.109 248.665 470.919 251.189C471.28 251.478 474.883 253.569 475.532 252.632C469.478 244.12 477.405 243.038 478.63 241.019ZM486.773 236.186C485.188 236.475 483.314 240.081 484.323 242.029C487.926 247.078 495.133 248.737 494.34 240.658C493.763 238.783 488.431 235.825 486.773 236.114V236.186ZM615.334 267.563L580.095 243.183L560.133 271.674C559.845 273.405 561.142 274.054 562.007 275.064C563.737 277.084 593.643 298.579 595.733 298.579C598.255 298.579 598.543 297.136 599.84 295.621C602.795 292.087 617.207 270.808 615.406 267.563H615.334ZM489.368 253.425C492.034 250.828 480.864 242.894 477.261 244.769C474.306 247.438 488.287 254.435 489.368 253.425ZM603.443 322.598C590.328 316.611 581.464 307.09 569.43 298.723C545.144 281.844 520.499 264.389 492.827 253.425L491.097 258.546C527.201 274.704 563.665 298.867 593.931 324.329C606.398 334.86 620.09 345.968 627.729 360.611L631.188 356.355C631.188 350.585 610.145 332.336 605.101 326.926C603.732 325.483 603.804 323.031 603.443 322.598C610.866 325.988 621.027 336.808 626.792 343.299C629.242 346.112 632.413 353.325 632.845 353.686C634.358 354.84 636.881 354.191 636.304 351.089C633.854 337.168 573.825 292.087 559.701 282.421C544.496 271.963 517.688 253.569 500.898 247.871C498.736 247.15 494.34 245.996 494.484 249.097C494.556 250.901 521.508 263.163 526.12 265.832C549.108 279.32 586.22 303.123 603.371 322.526L603.443 322.598ZM487.638 262.081L477.261 258.618L481.585 267.274L487.638 262.081ZM617.279 358.952C612.595 343.083 596.165 338.827 583.914 330.965C562.872 317.405 542.766 303.483 523.093 288.048C511.707 279.103 502.195 264.389 485.909 265.615C483.17 268.068 502.483 286.749 504.861 288.985C515.238 298.507 529.146 308.821 540.676 317.188C549.468 323.536 611.154 364.722 617.279 359.024V358.952ZM619.874 272.612L600.056 302.69L631.98 327.863C635.151 323.103 650.933 301.68 649.996 297.929L619.874 272.612ZM528.138 287.326C541.541 298.795 563.737 315.313 579.014 323.752C581.464 325.123 584.995 327.431 587.878 326.998C567.988 309.542 546.009 294.251 523.021 281.195C522.517 282.782 526.912 286.316 528.065 287.326H528.138ZM654.464 301.897L636.304 330.46L656.193 352.027L674.353 323.464L654.464 301.897ZM670.894 367.607C672.119 359.24 687.973 345.03 685.811 338.178C685.379 336.736 679.758 328.368 678.677 327.863C675.939 326.565 676.299 329.162 675.65 330.027C672.912 333.85 660.733 351.811 660.445 354.768C660.085 358.447 667.796 369.771 670.822 367.607H670.894ZM644.952 352.027C647.114 349.935 636.881 341.785 635.439 339.981L639.331 349.863L644.952 352.027ZM639.187 385.568C631.116 379.725 584.491 357.293 574.474 354.191C539.523 343.516 466.524 349.358 432.366 363.279C427.754 365.155 409.594 374.532 406.495 377.201C404.622 378.86 394.749 393.79 394.749 395.738C394.533 413.338 406.567 420.046 418.458 429.856C418.097 419.902 428.474 421.056 435.753 421.2C416.44 402.446 420.331 386.433 442.671 373.594C481.657 351.306 557.539 352.748 598.255 370.204C626.287 382.25 644.159 403.312 612.163 425.456L628.593 434.905C640.844 427.259 654.392 419.902 656.77 404.249C658.211 394.728 649.78 396.387 645.744 393.502C644.231 392.42 641.493 387.155 639.187 385.496V385.568ZM653.095 357.725C646.609 349.863 631.116 358.663 634.647 364.073L653.527 370.997C655.113 366.381 656.482 361.909 653.095 357.725ZM548.171 360.683H496.286V362.414H548.171V360.683ZM617.279 398.695C617.135 393.286 612.379 389.03 608.488 385.856C575.339 358.952 474.234 356.499 441.806 384.846C438.131 388.092 432.15 393.646 434.816 398.623C445.193 385.784 462.488 379.942 478.198 376.263C516.607 367.319 558.764 370.637 595.444 384.991L617.279 398.623V398.695ZM625.927 367.607C619.658 368.689 614.541 365.083 608.632 364.145C605.605 366.814 620.09 373.955 621.747 374.387C625.639 375.397 623.981 369.699 625.927 367.607ZM641.493 381.456L642.501 372.801C625.639 359.961 623.981 379.076 641.493 381.456ZM448.724 374.532V376.263C449.877 375.686 449.877 375.109 448.724 374.532ZM430.564 407.351L431.933 392.276L445.337 376.263C435.248 383.404 418.89 393.935 430.636 407.351H430.564ZM518.409 378.499C501.835 378.86 481.945 382.105 466.884 389.174C442.671 400.571 443.319 417.593 467.46 428.485C494.989 440.819 574.258 444.498 597.246 422.715C607.479 413.049 604.596 404.322 594.724 396.315C577.501 382.322 540.028 378.066 518.409 378.499ZM665.706 381.456L651.942 379.797C646.537 394.512 665.634 398.046 665.706 381.456ZM462.56 384.918V386.65C463.713 386.073 463.713 385.496 462.56 384.918ZM459.101 386.65V388.381C460.254 387.804 460.254 387.227 459.101 386.65ZM456.507 388.381C455.066 387.082 432.078 398.912 437.05 410.38C438.563 413.915 447.355 423.003 445.697 413.843C444.544 407.784 444.256 406.485 446.995 400.426C446.13 396.315 459.317 390.977 456.507 388.309V388.381ZM593.066 388.381H589.607V390.112H593.066V388.381ZM595.661 390.112C597.03 395.594 604.38 398.263 606.11 403.817C607.839 409.371 606.686 415.43 605.966 421.2C626.359 410.813 609.929 395.738 595.588 390.112H595.661ZM622.324 390.256L617.279 390.977L620.883 396.027L624.197 407.351C627.008 404.538 623.837 391.194 622.324 390.184V390.256ZM618.144 400.426V402.158C619.297 401.581 619.297 401.004 618.144 400.426ZM622.468 412.544V409.082H620.738V412.544H622.468ZM657.058 464.406V416.007H655.329C655.761 417.666 653.599 419.541 653.599 420.334V461.809C653.599 462.17 656.626 464.983 657.058 464.406ZM397.703 417.738V521.533C400.802 520.668 400.154 516.917 403.901 514.825C407 513.022 412.837 513.166 413.125 512.877C413.701 512.3 414.854 499.101 414.999 496.576C415.935 480.491 416.584 453.226 414.999 437.574C413.99 426.898 404.477 425.023 397.631 417.81L397.703 417.738ZM421.917 426.393C423.07 432.092 439.212 430.433 439.14 427.259C434.6 422.066 427.393 425.239 421.917 426.393ZM584.419 447.167C578.005 446.446 574.762 440.314 567.988 440.098C560.061 439.81 547.234 443.344 538.659 443.777C507.527 445.147 471.064 439.305 443.463 424.662C441.878 432.813 436.329 433.751 428.763 433.318C428.546 435.77 432.582 436.131 434.528 436.996C472.865 454.308 534.911 457.193 576.059 450.052C578.221 449.691 584.419 449.691 584.347 447.167H584.419ZM650.14 459.213V424.59C628.521 436.996 620.162 450.773 650.14 459.213ZM599.984 428.124L577.501 438.511C575.555 441.036 592.274 446.662 592.778 447.383C594.724 450.196 590.112 456.399 596.597 461.737C600.633 465.127 647.69 491.022 651.437 491.743C656.482 492.681 681.271 487.848 681.199 482.511L601.642 439.305L599.912 428.052L599.984 428.124ZM627.296 438.872C626.431 437.429 605.101 426.538 603.443 428.124C597.678 433.895 621.171 445.941 625.062 447.095C628.954 448.249 628.161 440.459 627.224 438.8L627.296 438.872ZM418.458 435.049V515.474C418.458 516.989 432.222 529.756 435.248 540.143C440.293 557.454 431.429 580.608 411.684 567.192C405.486 563.008 394.244 548.582 394.244 541.369V474.793H392.515V563.873C392.515 570.942 406.711 586.09 412.404 590.634C461.335 629.656 590.328 630.81 638.826 590.634C647.546 583.421 656.986 570.437 656.986 558.68V497.297H653.527V546.562L648.339 549.159V496.432L629.314 486.911V568.201C619.225 566.831 625.711 550.313 625.927 543.172C626.503 523.697 625.567 504.078 625.567 484.602C624.63 481.717 599.552 468.373 594.724 467.94V580.319H589.535V452.36L548.027 457.554V587.244L544.568 584.647L542.838 457.481C532.173 457.193 521.436 457.842 510.77 457.554C505.87 457.409 501.114 453.659 497.871 458.347V577.65L492.683 587.172L494.34 455.822L452.904 448.826L451.174 576.785H445.986L449.229 448.177L418.313 434.977L418.458 435.049ZM405.847 528.602C396.623 530.982 398.424 557.238 408.945 556.156C419.466 555.074 416.152 525.933 405.847 528.602ZM420.043 559.329C420.836 555.651 421.917 552.405 421.845 548.582C421.845 547.284 420.908 540.287 418.53 540.575C419.322 548.221 418.386 553.703 413.341 559.546L420.043 559.329ZM427.105 559.546C427.033 555.795 427.321 552.044 427.105 548.293C427.033 546.202 428.402 541.874 425.376 542.234C425.448 545.985 425.159 549.736 425.376 553.487C425.448 555.579 424.079 559.906 427.105 559.546ZM424.511 561.277V563.008C425.664 562.431 425.664 561.854 424.511 561.277ZM421.052 564.739V566.47C422.205 565.893 422.205 565.316 421.052 564.739ZM655.329 580.319C647.33 586.595 641.421 594.457 632.701 600.083C579.014 634.705 454.489 633.984 405.558 590.634L392.587 575.126C389.344 585.152 398.136 590.634 399.361 598.568C400.874 607.945 397.848 615.952 397.631 624.319C396.767 668.102 398.424 712.101 397.776 755.884L395.902 767.858L396.118 828.375C382.786 830.034 394.821 849.004 399.721 855.857C444.04 916.734 577.861 915.941 631.908 869.056C640.484 861.627 655.329 841.575 655.329 830.178V580.319ZM392.515 815.464V777.451L389.056 793.897L392.515 815.536V815.464ZM468.613 908.872C466.956 898.63 456.867 896.105 447.859 895.023C446.418 901.803 467.244 910.098 468.613 908.872ZM584.491 898.486C576.636 897.908 571.88 900.361 572.384 908.872C579.086 910.026 580.96 902.092 584.491 898.486ZM499.745 905.41L473.874 902.813L477.621 912.046C484.179 912.767 490.809 914.859 497.295 915.725C502.699 916.446 496.718 908.512 499.817 905.41H499.745ZM565.466 903.679L539.523 905.41C541.757 909.233 540.532 911.83 539.523 915.725C550.405 914.21 562.656 916.662 565.466 903.679ZM532.605 907.141H506.663C505.87 921.207 520.066 916.951 529.795 917.6L532.605 907.141Z" fill="#000042"/>
<path d="M287.087 281.989C292.203 238.855 333.423 237.989 364.266 219.308L431.285 242.894C432.87 243.183 432.654 246.356 432.366 247.366C431.429 250.396 381.129 270.087 374.715 274.415C364.41 281.051 359.078 297.857 357.997 309.615C357.276 318.054 356.556 343.66 357.997 351.09C359.438 358.519 378.463 359.457 377.021 369.194L295.158 374.099L261.144 316.611C260.784 314.231 261.144 313.293 263.738 314.015C270.512 315.962 278.872 325.555 287.087 326.06C288.312 312.067 285.501 295.621 287.087 281.989ZM425.376 244.842L365.708 224.212C348.052 234.166 307.769 244.265 298.257 262.009C288.744 279.753 293.068 310.48 290.546 331.254C282.763 332.624 278.295 325.916 271.521 324.329L294.798 367.607C297.464 370.348 309.354 369.627 313.894 369.411C331.982 368.545 350.142 364.794 368.302 365.876C364.843 359.601 354.105 360.611 352.808 352.893C354.105 332.336 351.151 304.421 359.942 285.667C361.528 282.277 363.834 279.176 365.924 276.074L425.376 244.77V244.842Z" fill="#E66B23"/>
<path d="M440.941 626.988C443.968 626.771 446.706 626.988 449.661 627.781C467.821 633.119 490.953 646.391 510.482 653.387C521.148 657.21 532.101 660.817 542.911 664.135C553.72 667.453 575.339 670.626 583.914 674.954C594.147 680.147 587.95 695.367 587.734 703.806C587.301 723.498 586.653 743.117 586.004 762.592C585.5 778.1 589.391 817.411 580.96 828.447C576.636 834.001 549.829 850.014 542.334 853.765C515.743 867.109 480.432 876.269 450.526 872.302C447.067 871.87 443.247 870.788 440.869 868.119V626.843L440.941 626.988ZM461.479 637.591L446.13 630.45L444.4 862.204C445.481 863.43 457.516 853.188 459.029 851.817C463.569 847.778 467.605 843.09 472.001 838.906C466.74 834.506 464.146 828.375 463.425 821.595C459.173 781.923 464.434 734.029 461.768 693.564C458.669 675.17 459.462 656.056 461.479 637.663V637.591ZM447.86 867.325C495.205 874.322 545.361 853.621 580.095 822.316C582.617 791.444 581.969 760.717 582.617 729.773C582.689 725.662 584.419 721.911 584.491 717.799C584.635 711.38 585.572 682.384 582.761 679.643L466.019 642.496C461.84 649.709 465.227 655.695 465.227 662.331C465.515 706.619 464.866 753.287 466.812 797.359C467.1 804.5 467.749 820.296 468.974 826.283C469.983 831.26 475.964 835.949 475.604 840.421L447.86 867.325Z" fill="#000042"/>
</g>
<defs>
<clipPath id="clip0_106_50">
<rect width="430" height="749" fill="white" transform="translate(261 173)"/>
</clipPath>
</defs>
</svg>
