<svg xmlns="http://www.w3.org/2000/svg" width="225" height="67" fill="none" viewBox="0 0 225 67"><g clip-path="url(#a)"><path fill="currentColor" d="M58.396 58.05V46.752h1.958c.865 0 1.48.041 1.865.124.385.084.708.23.968.427.376.282.657.625.855 1.042a3.1 3.1 0 0 1 .291 1.354c0 .604-.156 1.114-.468 1.54-.313.428-.75.699-1.303.834.73.104 1.292.396 1.709.875.416.479.614 1.072.614 1.801 0 .531-.083 1-.24 1.416-.155.417-.405.771-.728 1.063-.334.312-.73.53-1.188.656-.458.125-1.25.187-2.375.187h-1.979l.02-.02Zm1.031-6.28h1.281c.938 0 1.605-.155 2-.457.386-.313.584-.823.584-1.542 0-.78-.188-1.322-.563-1.645-.375-.323-1.052-.479-2.01-.479h-1.282v4.134l-.01-.01Zm0 5.385h1.313c.75 0 1.26-.032 1.541-.094.282-.062.521-.167.719-.312.24-.188.438-.438.583-.771.146-.323.22-.677.22-1.041a2.89 2.89 0 0 0-.24-1.198 1.736 1.736 0 0 0-.667-.77 1.99 1.99 0 0 0-.688-.24 8.4 8.4 0 0 0-1.24-.073h-1.54v4.499ZM82.958 58.05V46.752h1.032V58.05h-1.032ZM114.188 52.416a5.821 5.821 0 0 1-1.771 4.186 6.096 6.096 0 0 1-4.292 1.74 5.939 5.939 0 0 1-2.312-.448 5.929 5.929 0 0 1-1.959-1.291 5.912 5.912 0 0 1-1.312-1.927 5.734 5.734 0 0 1-.448-2.27c0-.802.146-1.572.448-2.29a6.016 6.016 0 0 1 1.312-1.938 5.549 5.549 0 0 1 1.938-1.27 6.198 6.198 0 0 1 2.333-.438c.833 0 1.615.146 2.344.438a6 6 0 0 1 1.948 1.27 5.846 5.846 0 0 1 1.76 4.228l.011.01Zm-6.053 5.01c.667 0 1.303-.125 1.896-.375a5.003 5.003 0 0 0 1.615-1.083 5 5 0 0 0 1.073-1.635c.25-.615.375-1.25.375-1.927a5 5 0 0 0-.375-1.926 5.078 5.078 0 0 0-1.084-1.635 4.9 4.9 0 0 0-1.604-1.083 4.949 4.949 0 0 0-1.916-.375c-.677 0-1.302.125-1.896.375a4.958 4.958 0 0 0-1.604 1.083 5.264 5.264 0 0 0-1.084 1.635 4.962 4.962 0 0 0-.375 1.926c0 .687.125 1.323.375 1.927.25.604.604 1.145 1.084 1.635.479.479 1 .843 1.593 1.083.584.24 1.219.364 1.907.364l.02.01ZM135.823 48.303v9.747h-1.833v-9.747h-3v-1.562h7.833v1.562h-3ZM156.031 58.05V46.752h6.313v1.561h-4.469v2.833h4.469v1.614h-4.469v3.655h4.469v1.646h-6.313v-.01ZM189.333 49.49a5.815 5.815 0 0 0-1.646-1 5.136 5.136 0 0 0-1.822-.333c-1.24 0-2.24.396-3.021 1.188-.771.79-1.167 1.822-1.167 3.082 0 1.26.375 2.229 1.136 3.02.75.791 1.708 1.187 2.854 1.187.666 0 1.302-.114 1.906-.354a6.076 6.076 0 0 0 1.74-1.073v2.073a5.191 5.191 0 0 1-1.615.791 6.467 6.467 0 0 1-1.896.26 6.62 6.62 0 0 1-2.396-.426 5.63 5.63 0 0 1-1.937-1.25 5.52 5.52 0 0 1-1.271-1.906 6.248 6.248 0 0 1-.448-2.343c0-.833.146-1.604.448-2.333a5.69 5.69 0 0 1 1.281-1.916 5.731 5.731 0 0 1 1.927-1.26 6.476 6.476 0 0 1 2.354-.427c.667 0 1.302.094 1.896.292.604.198 1.188.49 1.75.875l-.104 1.853h.031ZM207.427 58.05V46.752h1.833v4.165h5.563v-4.166h1.833v11.3h-1.833v-5.489h-5.563v5.488h-1.833ZM88.52 16.187c1.345 1.302 2.022 3.062 2.022 5.28V37.93a.84.84 0 0 1-.844.844h-.73a.84.84 0 0 1-.843-.844v-16.34c0-3.592-1.813-5.393-5.438-5.393-1.28 0-2.541.291-3.77.874-1.115.531-2.146 1.281-3.094 2.25a.838.838 0 0 0-.219.697c.052.407.073.823.073 1.27v16.642a.84.84 0 0 1-.844.844h-.729a.84.84 0 0 1-.844-.844V21.373c0-1.697-.406-2.978-1.208-3.853-.802-.875-1.98-1.312-3.531-1.312-2.625 0-5.073 1.125-7.334 3.385a.854.854 0 0 0-.25.593v17.745a.84.84 0 0 1-.843.844h-.73a.84.84 0 0 1-.843-.844V21.769c0-2.218-.042-3.801-.115-4.76a7.74 7.74 0 0 0-.187-1.28.837.837 0 0 1 .468-.968c.396-.177.76-.271 1.094-.271.76 0 1.136.916 1.136 2.76v.176c2.312-2.134 4.937-3.197 7.885-3.197 1.375 0 2.583.302 3.615.896a5.935 5.935 0 0 1 1.885 1.708.84.84 0 0 0 1.23.135c2.124-1.822 4.635-2.739 7.51-2.739 2.28 0 4.093.646 5.437 1.948l.042.01ZM116.458 27.038h-16.396a.849.849 0 0 0-.843.906c.198 2.697.948 4.853 2.229 6.478 1.427 1.801 3.365 2.697 5.781 2.697 1.636 0 3.021-.302 4.146-.917 1.125-.614 2.115-1.603 2.958-2.978.323-.5.677-.75 1.052-.75.188 0 .428.073.73.209.416.197.614.697.416 1.114a8.844 8.844 0 0 1-3.291 3.822c-1.667 1.062-3.667 1.603-6.011 1.603-2.135 0-3.989-.51-5.562-1.53-1.584-1.021-2.802-2.479-3.657-4.364-.864-1.885-1.291-4.092-1.291-6.644 0-3.915.937-6.967 2.823-9.153 1.885-2.187 4.51-3.291 7.864-3.291 3.125 0 5.563.979 7.302 2.937 1.74 1.957 2.605 4.675 2.605 8.153 0 .323 0 .625-.021.927a.836.836 0 0 1-.844.781h.01ZM114 25.018a.85.85 0 0 0 .844-.885c-.125-2.395-.761-4.26-1.906-5.582-1.282-1.479-3.167-2.208-5.657-2.208-2.333 0-4.218.76-5.635 2.281-1.25 1.343-2.031 3.155-2.334 5.446-.062.5.334.948.834.948H114ZM134.677 37.42c0 .5-.208.865-.615 1.094-.906.469-2.187.698-3.854.698-1.812 0-3.27-.552-4.385-1.645-1.115-1.094-1.667-2.531-1.667-4.312V17.49a.84.84 0 0 0-.844-.844h-2.874a.84.84 0 0 1-.844-.843v-.292a.84.84 0 0 1 .844-.843h2.874a.84.84 0 0 0 .844-.844V8.95a.84.84 0 0 1 .844-.844h.729a.84.84 0 0 1 .844.844v4.894a.84.84 0 0 0 .844.844h5.198a.84.84 0 0 1 .843.843v.292a.84.84 0 0 1-.843.843h-5.198a.84.84 0 0 0-.844.844v15.287c0 1.427.323 2.51.969 3.239.646.729 1.562 1.093 2.76 1.093 1.198 0 2.219-.198 3.24-.604.489-.187 1.041.115 1.125.625.01.094.021.188.021.281l-.011-.01ZM156.656 36.13c.157.51.386.978.688 1.384a.829.829 0 0 1-.219 1.198c-.323.188-.625.281-.917.281-.614 0-1.114-.385-1.51-1.166a6.035 6.035 0 0 1-.479-1.354c-.146-.635-.948-.843-1.417-.396a10.94 10.94 0 0 1-2.781 1.927 11.706 11.706 0 0 1-5.219 1.208c-2.104 0-3.823-.594-5.146-1.77-1.333-1.188-1.989-2.708-1.989-4.582 0-2.718 1.375-4.843 4.125-6.374 2.604-1.458 6.385-2.322 11.343-2.614a.847.847 0 0 0 .803-.843v-.604c0-4.124-2.094-6.175-6.271-6.175-1.459 0-2.813.28-4.052.833-1.24.552-2.459 1.447-3.657 2.676-.145.146-.354.219-.614.219-.261 0-.542-.104-.834-.302a1.725 1.725 0 0 1-.26-.219.845.845 0 0 1-.021-1.208 12.782 12.782 0 0 1 4.011-2.822 13.342 13.342 0 0 1 5.562-1.187c2.688 0 4.781.718 6.292 2.166 1.5 1.447 2.26 3.457 2.26 6.03v10.559c0 1.343.104 2.385.334 3.135h-.032Zm-6.771-.355c1.48-.906 2.782-2.176 3.886-3.79a.863.863 0 0 0 .146-.48v-4.769a.852.852 0 0 0-.896-.843c-4.198.25-7.365.906-9.49 1.968-2.281 1.135-3.416 2.79-3.416 4.946 0 1.375.437 2.448 1.312 3.218s2.073 1.167 3.594 1.167c1.698 0 3.312-.48 4.864-1.427v.01ZM179.979 27.788c.813 1.083 1.219 2.312 1.219 3.686 0 2.323-.792 4.124-2.385 5.395-1.584 1.27-3.844 1.906-6.782 1.906h-8.396a.84.84 0 0 1-.843-.844V14.177a.84.84 0 0 1 .843-.843h8.032c2.593 0 4.635.625 6.125 1.874 1.489 1.25 2.239 2.937 2.239 5.072 0 1.239-.291 2.332-.875 3.29-.302.5-.666.927-1.083 1.281-.448.375-.354 1.073.146 1.375.677.396 1.26.916 1.75 1.562h.01Zm-9.291-11.143h-2.428a.84.84 0 0 0-.843.844v5.842a.84.84 0 0 0 .843.843h2.323c1.646 0 2.865-.312 3.636-.947.771-.625 1.166-1.614 1.166-2.947 0-2.427-1.562-3.635-4.687-3.635h-.01Zm3.677 18.443c.77-.25 1.333-.666 1.677-1.24.343-.572.51-1.363.51-2.384 0-1.458-.417-2.489-1.25-3.103-.833-.615-2.239-.927-4.198-.927h-2.833a.84.84 0 0 0-.844.843v6.353a.84.84 0 0 0 .844.843h2.906c1.354 0 2.427-.125 3.198-.385h-.01ZM187.458 13.334h2.896a.84.84 0 0 1 .844.843v23.764a.84.84 0 0 1-.844.844h-2.896a.84.84 0 0 1-.843-.843V14.176a.84.84 0 0 1 .843-.843ZM212.479 38.785a.838.838 0 0 1-.823-.687c-.364-1.833-.968-3.478-1.823-4.947a29.616 29.616 0 0 0-3.083-4.29.851.851 0 0 0-1.292 0c-1.239 1.426-2.27 2.853-3.093 4.27-.865 1.478-1.48 3.134-1.844 4.956a.846.846 0 0 1-.823.688h-2.99a.846.846 0 0 1-.823-1.031c.355-1.583.855-3.02 1.48-4.333.76-1.582 1.614-2.978 2.562-4.175.813-1.042 1.792-2.156 2.938-3.364a.84.84 0 0 0 0-1.156c-1.709-1.843-3.094-3.562-4.157-5.165-1-1.5-1.75-3.228-2.25-5.165a.846.846 0 0 1 .813-1.052h2.927c.396 0 .719.27.823.646.396 1.551.969 2.957 1.739 4.207.73 1.187 1.636 2.395 2.709 3.624a.854.854 0 0 0 1.281 0c1.073-1.23 1.969-2.448 2.688-3.645a15.258 15.258 0 0 0 1.718-4.187.848.848 0 0 1 .823-.645h2.969c.552 0 .958.52.812 1.052-.5 1.937-1.25 3.665-2.25 5.186-1.062 1.614-2.458 3.322-4.177 5.134a.844.844 0 0 0 0 1.166 50.505 50.505 0 0 1 2.948 3.343c.959 1.208 1.823 2.614 2.584 4.196a20.356 20.356 0 0 1 1.479 4.333.846.846 0 0 1-.823 1.03h-3.031l-.011.011Z"/><path fill="#E66B23" d="M27.115 28.736c1.843-2.125 3.385-4.218 4.635-6.29.146-.25.281-.51.427-.77h-4.812a.258.258 0 0 1-.26-.261c0-.146.114-.26.26-.26h5.093c.313-.605.605-1.219.875-1.854h-8.812a.347.347 0 0 1-.344-.344c0-.187.156-.343.344-.343h9.083c.209-.542.417-1.083.594-1.646H21.844a.676.676 0 0 1-.677-.677c0-.375.302-.677.677-.677h12.75c.031-.135.083-.26.114-.395a1.459 1.459 0 0 1 1.417-1.115h5.115a1.45 1.45 0 0 1 1.406 1.812c-.865 3.354-2.156 6.332-3.875 8.946-1.834 2.78-4.24 5.727-7.219 8.872l-4.448-4.998h.01Zm-6.74 7.04c-1.958 2.072-3.635 3.988-5.031 5.769-1.636 2.072-3.104 4.477-4.427 7.216-1.084 2.26-1.938 4.749-2.552 7.477A1.46 1.46 0 0 0 9.78 58.02h5.156c.698 0 1.292-.51 1.428-1.197.02-.084.03-.157.052-.24h12.875a.676.676 0 0 0 .677-.677.676.676 0 0 0-.677-.677H16.729c.146-.562.292-1.104.469-1.645h9.417a.347.347 0 0 0 .343-.344.347.347 0 0 0-.343-.343h-9.188a25.644 25.644 0 0 1 2.115-4.635c1.427-2.447 3.208-4.904 5.343-7.373l-4.52-5.102.01-.01Zm7.792-3.396a63.159 63.159 0 0 1-4.698-5.363c-1.23-1.53-2.313-3.04-3.23-4.54-1.322-2.156-2.52-5.332-3.197-8.018a1.468 1.468 0 0 0-1.417-1.125h-5.052a1.45 1.45 0 0 0-1.406 1.812c.864 3.343 2.354 7.081 4.083 9.674 1.365 2.062 3.052 4.238 5.042 6.53.02.02.052.062.073.083.656.75 1.343 1.52 2.073 2.301.072.084.145.177.197.271 1.125 1.25 2.375 2.635 3.23 3.478 1.875 1.875 3.948 3.833 5.291 5.894.021.042.042.063.063.105 1.229 1.614 2.323 3.217 3.24 4.8 1.468 2.53 2.76 6.259 3.395 9.414.136.688.73 1.198 1.427 1.198h5.23a1.46 1.46 0 0 0 1.416-1.78c-.614-2.73-1.719-6.103-2.802-8.363-1.313-2.739-2.802-5.155-4.458-7.248-1.427-1.802-3.115-3.718-5.073-5.77"/></g><defs><clipPath id="a"><path fill="#fff" d="M8.333 8.106h208.333v50.788H8.333z"/></clipPath></defs></svg>

