<svg width="84" height="25" viewBox="0 0 84 25" fill="none" xmlns="http://www.w3.org/2000/svg">
<g clip-path="url(#clip0_69_22)">
<path d="M21.8011 21.6655V17.4472H22.5322C22.855 17.4472 23.0844 17.4628 23.2283 17.4939C23.3722 17.525 23.4928 17.5794 23.59 17.6533C23.73 17.7582 23.835 17.8865 23.9089 18.042C23.9828 18.1976 24.0178 18.3647 24.0178 18.5475C24.0178 18.7729 23.9594 18.9634 23.8428 19.1228C23.7261 19.2822 23.5628 19.3833 23.3567 19.4339C23.6289 19.4728 23.8389 19.5816 23.9944 19.7604C24.15 19.9393 24.2239 20.1609 24.2239 20.433C24.2239 20.6313 24.1928 20.8063 24.1344 20.9618C24.0761 21.1173 23.9828 21.2495 23.8622 21.3583C23.7378 21.475 23.59 21.5566 23.4189 21.6033C23.2478 21.6499 22.9522 21.6732 22.5322 21.6732H21.7933L21.8011 21.6655ZM22.1861 19.3211H22.6644C23.0144 19.3211 23.2633 19.2628 23.4111 19.1501C23.555 19.0334 23.6289 18.8429 23.6289 18.5747C23.6289 18.2831 23.5589 18.0809 23.4189 17.9604C23.2789 17.8399 23.0261 17.7816 22.6683 17.7816H22.19V19.325L22.1861 19.3211ZM22.1861 21.3311H22.6761C22.9561 21.3311 23.1467 21.3195 23.2517 21.2961C23.3567 21.2728 23.4461 21.2339 23.52 21.1795C23.6094 21.1095 23.6833 21.0162 23.7378 20.8918C23.7922 20.7713 23.8194 20.6391 23.8194 20.503C23.8194 20.3358 23.7883 20.1842 23.73 20.0559C23.6717 19.9276 23.5861 19.8343 23.4811 19.7682C23.4072 19.7255 23.3217 19.6944 23.2244 19.6788C23.1272 19.6633 22.9717 19.6516 22.7617 19.6516H22.1861V21.3311Z" fill="#000042"/>
<path d="M30.9711 21.6655V17.4472H31.3561V21.6655H30.9711Z" fill="#000042"/>
<path d="M42.63 19.5622C42.63 19.8615 42.5717 20.1415 42.4589 20.4097C42.3461 20.678 42.1828 20.9151 41.9689 21.1251C41.7511 21.335 41.5061 21.4983 41.2339 21.6071C40.9617 21.716 40.6739 21.7743 40.3667 21.7743C40.0594 21.7743 39.7756 21.7199 39.5033 21.6071C39.2311 21.4983 38.9861 21.335 38.7722 21.1251C38.5583 20.9112 38.3911 20.6702 38.2822 20.4058C38.1694 20.1415 38.115 19.8576 38.115 19.5583C38.115 19.2589 38.1694 18.9712 38.2822 18.703C38.395 18.4347 38.5583 18.1937 38.7722 17.9798C38.9822 17.7699 39.2233 17.6105 39.4956 17.5055C39.7678 17.3967 40.0556 17.3422 40.3667 17.3422C40.6778 17.3422 40.9694 17.3967 41.2417 17.5055C41.5139 17.6144 41.755 17.7738 41.9689 17.9798C42.1828 18.1937 42.35 18.4347 42.4589 18.703C42.5717 18.9712 42.6261 19.255 42.6261 19.5583L42.63 19.5622ZM40.3706 21.4322C40.6194 21.4322 40.8567 21.3855 41.0783 21.2922C41.3 21.1989 41.5022 21.0667 41.6811 20.8879C41.8561 20.7091 41.9883 20.5069 42.0817 20.2775C42.175 20.0481 42.2217 19.811 42.2217 19.5583C42.2217 19.3056 42.175 19.0645 42.0817 18.839C41.9883 18.6135 41.8561 18.4114 41.6772 18.2287C41.5022 18.0537 41.3039 17.9176 41.0783 17.8243C40.8528 17.731 40.6156 17.6844 40.3628 17.6844C40.11 17.6844 39.8767 17.731 39.655 17.8243C39.4333 17.9176 39.235 18.0498 39.0561 18.2287C38.8811 18.4114 38.745 18.6135 38.6517 18.839C38.5583 19.0645 38.5117 19.3017 38.5117 19.5583C38.5117 19.8149 38.5583 20.052 38.6517 20.2775C38.745 20.503 38.8772 20.7052 39.0561 20.8879C39.235 21.0667 39.4294 21.2028 39.6511 21.2922C39.8689 21.3817 40.1061 21.4283 40.3628 21.4283L40.3706 21.4322Z" fill="#000042"/>
<path d="M50.7072 18.0265V21.6655H50.0228V18.0265H48.9028V17.4433H51.8272V18.0265H50.7111H50.7072Z" fill="#000042"/>
<path d="M58.2517 21.6655V17.4472H60.6083V18.0304H58.94V19.0879H60.6083V19.6905H58.94V21.0551H60.6083V21.6694H58.2517V21.6655Z" fill="#000042"/>
<path d="M70.6844 18.4697C70.49 18.3025 70.2839 18.182 70.07 18.0965C69.8522 18.0148 69.6267 17.9721 69.3894 17.9721C68.9267 17.9721 68.5533 18.1198 68.2617 18.4153C67.9739 18.7107 67.8261 19.0956 67.8261 19.5661C67.8261 20.0365 67.9661 20.398 68.25 20.6935C68.53 20.989 68.8878 21.1367 69.3156 21.1367C69.5644 21.1367 69.8017 21.094 70.0272 21.0045C70.2528 20.9151 70.4706 20.7829 70.6767 20.6041V21.3778C70.4939 21.51 70.2917 21.611 70.0739 21.6732C69.8561 21.7393 69.6228 21.7704 69.3661 21.7704C69.0433 21.7704 68.7439 21.716 68.4717 21.611C68.1994 21.5061 67.9583 21.3506 67.7483 21.1445C67.5422 20.9423 67.3828 20.7052 67.2739 20.433C67.165 20.1609 67.1067 19.8693 67.1067 19.5583C67.1067 19.2473 67.1611 18.9596 67.2739 18.6874C67.3828 18.4153 67.5461 18.1781 67.7522 17.9721C67.9622 17.766 68.2033 17.6066 68.4717 17.5016C68.7439 17.3967 69.0356 17.3422 69.3506 17.3422C69.5994 17.3422 69.8367 17.3772 70.0583 17.4511C70.2839 17.525 70.5017 17.6338 70.7117 17.7777L70.6728 18.4697H70.6844Z" fill="#000042"/>
<path d="M77.4394 21.6655V17.4472H78.1239V19.0023H80.2006V17.4472H80.885V21.6655H80.2006V19.6166H78.1239V21.6655H77.4394Z" fill="#000042"/>
<path d="M33.0478 6.03655C33.5494 6.52252 33.8022 7.17956 33.8022 8.00766V14.1543C33.8022 14.3292 33.6622 14.4692 33.4872 14.4692H33.215C33.04 14.4692 32.9 14.3292 32.9 14.1543V8.05431C32.9 6.71302 32.2233 6.04044 30.87 6.04044C30.3917 6.04044 29.9211 6.14929 29.4622 6.36701C29.0461 6.56529 28.6611 6.84521 28.3072 7.20677C28.2411 7.27287 28.2139 7.37006 28.2256 7.46725C28.245 7.61888 28.2528 7.77439 28.2528 7.94156V14.1543C28.2528 14.3292 28.1128 14.4692 27.9378 14.4692H27.6656C27.4906 14.4692 27.3506 14.3292 27.3506 14.1543V7.97267C27.3506 7.33896 27.1989 6.86076 26.8994 6.53419C26.6 6.20761 26.1606 6.04432 25.5811 6.04432C24.6011 6.04432 23.6872 6.4642 22.8433 7.30786C22.785 7.36617 22.75 7.44782 22.75 7.52946V14.1543C22.75 14.3292 22.61 14.4692 22.435 14.4692H22.1628C21.9878 14.4692 21.8478 14.3292 21.8478 14.1543V8.1204C21.8478 7.2923 21.8322 6.70136 21.805 6.34368C21.7894 6.14541 21.7661 5.98601 21.735 5.86549C21.7 5.71775 21.77 5.56613 21.91 5.50392C22.0578 5.43783 22.1939 5.40284 22.3183 5.40284C22.6022 5.40284 22.7422 5.74496 22.7422 6.4331V6.49919C23.6056 5.7022 24.5856 5.30564 25.6861 5.30564C26.1994 5.30564 26.6506 5.41839 27.0356 5.63999C27.3194 5.80328 27.5528 6.01711 27.7394 6.27759C27.8483 6.42533 28.0583 6.44865 28.1983 6.32813C28.9917 5.64777 29.9289 5.30564 31.0022 5.30564C31.8539 5.30564 32.5306 5.54669 33.0322 6.03266L33.0478 6.03655Z" fill="#000042"/>
<path d="M43.4778 10.0876H37.3567C37.1739 10.0876 37.03 10.2431 37.0417 10.4259C37.1156 11.4328 37.3956 12.2376 37.8739 12.8441C38.4067 13.5167 39.13 13.851 40.0322 13.851C40.6428 13.851 41.16 13.7383 41.58 13.5089C42 13.2795 42.3694 12.9102 42.6844 12.397C42.805 12.2104 42.9372 12.1171 43.0772 12.1171C43.1472 12.1171 43.2367 12.1443 43.3494 12.1948C43.505 12.2687 43.5789 12.4553 43.505 12.6108C43.2289 13.2134 42.8167 13.6877 42.2761 14.0376C41.6539 14.4342 40.9072 14.6363 40.0322 14.6363C39.235 14.6363 38.5428 14.4458 37.9556 14.0648C37.3644 13.6838 36.9094 13.1395 36.5906 12.4358C36.2678 11.7322 36.1083 10.9079 36.1083 9.95544C36.1083 8.49363 36.4583 7.35451 37.1622 6.53807C37.8661 5.72164 38.8461 5.30953 40.0983 5.30953C41.265 5.30953 42.175 5.67498 42.8244 6.40589C43.4739 7.13679 43.7967 8.15151 43.7967 9.45003C43.7967 9.57055 43.7967 9.6833 43.7889 9.79604C43.7811 9.95933 43.6411 10.0876 43.4739 10.0876H43.4778ZM42.56 9.33339C42.7389 9.33339 42.8828 9.18177 42.875 9.00293C42.8283 8.10874 42.5911 7.41283 42.1633 6.91908C41.685 6.36701 40.9811 6.09486 40.0517 6.09486C39.1806 6.09486 38.4767 6.37867 37.9478 6.94629C37.4811 7.44782 37.1894 8.12429 37.0767 8.97961C37.0533 9.16622 37.2011 9.33339 37.3878 9.33339H42.56Z" fill="#000042"/>
<path d="M50.2794 13.9638C50.2794 14.1504 50.2017 14.2864 50.05 14.372C49.7117 14.5469 49.2333 14.6325 48.6111 14.6325C47.9344 14.6325 47.39 14.4264 46.9739 14.0182C46.5578 13.61 46.3517 13.0734 46.3517 12.4086V6.52252C46.3517 6.34757 46.2117 6.20761 46.0367 6.20761H44.9633C44.7883 6.20761 44.6483 6.06765 44.6483 5.8927V5.78384C44.6483 5.60889 44.7883 5.46893 44.9633 5.46893H46.0367C46.2117 5.46893 46.3517 5.32897 46.3517 5.15402V3.33453C46.3517 3.15958 46.4917 3.01962 46.6667 3.01962H46.9389C47.1139 3.01962 47.2539 3.15958 47.2539 3.33453V5.1618C47.2539 5.33675 47.3939 5.47671 47.5689 5.47671H49.5094C49.6844 5.47671 49.8244 5.61667 49.8244 5.79162V5.90048C49.8244 6.07543 49.6844 6.21539 49.5094 6.21539H47.5689C47.3939 6.21539 47.2539 6.35535 47.2539 6.5303V12.2376C47.2539 12.7702 47.3744 13.1745 47.6156 13.4467C47.8567 13.7188 48.1989 13.8549 48.6461 13.8549C49.0933 13.8549 49.4744 13.781 49.8556 13.6294C50.0383 13.5594 50.2444 13.6722 50.2756 13.8627C50.2794 13.8977 50.2833 13.9326 50.2833 13.9676L50.2794 13.9638Z" fill="#000042"/>
<path d="M58.485 13.4817C58.5433 13.6722 58.6289 13.8471 58.7417 13.9987C58.8506 14.1426 58.8117 14.3525 58.66 14.4458C58.5394 14.5158 58.4267 14.5508 58.3178 14.5508C58.0883 14.5508 57.9017 14.407 57.7539 14.1154C57.68 13.9715 57.6217 13.8044 57.575 13.61C57.5206 13.3728 57.2211 13.2951 57.0461 13.4622C56.7506 13.746 56.4045 13.9871 56.0078 14.1815C55.3972 14.4808 54.7478 14.6325 54.0594 14.6325C53.2739 14.6325 52.6322 14.4108 52.1383 13.9715C51.6406 13.5283 51.3956 12.9607 51.3956 12.2609C51.3956 11.2462 51.9089 10.4531 52.9356 9.88157C53.9078 9.33728 55.3194 9.0146 57.1706 8.90574C57.3378 8.89796 57.47 8.758 57.47 8.59083V8.36533C57.47 6.82577 56.6883 6.05987 55.1289 6.05987C54.5844 6.05987 54.0789 6.16485 53.6161 6.3709C53.1533 6.57695 52.6983 6.9113 52.2511 7.37006C52.1967 7.42449 52.1189 7.4517 52.0217 7.4517C51.9244 7.4517 51.8194 7.41283 51.7106 7.33896C51.6756 7.31563 51.6444 7.28842 51.6133 7.25731C51.485 7.13679 51.4811 6.93463 51.6056 6.80633C52.0333 6.35923 52.535 6.00933 53.1028 5.75274C53.7561 5.45727 54.4483 5.30953 55.1794 5.30953C56.1828 5.30953 56.9644 5.57779 57.5283 6.11819C58.0883 6.65859 58.3722 7.40894 58.3722 8.36922V12.3114C58.3722 12.813 58.4111 13.2017 58.4967 13.4817H58.485ZM55.9572 13.3495C56.5094 13.0112 56.9956 12.5369 57.4078 11.9343C57.4428 11.8838 57.4622 11.8177 57.4622 11.7555V9.97488C57.4622 9.79215 57.3067 9.65219 57.1278 9.65997C55.5606 9.75328 54.3783 9.99821 53.585 10.3948C52.7333 10.8185 52.3094 11.4367 52.3094 12.2415C52.3094 12.7547 52.4728 13.1551 52.7994 13.4428C53.1261 13.7305 53.5733 13.8782 54.1411 13.8782C54.775 13.8782 55.3778 13.6994 55.9572 13.3456V13.3495Z" fill="#000042"/>
<path d="M67.1922 10.3675C67.4956 10.7719 67.6472 11.2306 67.6472 11.7438C67.6472 12.6108 67.3517 13.2834 66.7567 13.7577C66.1656 14.232 65.3217 14.4692 64.225 14.4692H61.0906C60.9156 14.4692 60.7756 14.3292 60.7756 14.1543V5.2862C60.7756 5.11125 60.9156 4.97129 61.0906 4.97129H64.0889C65.0572 4.97129 65.8194 5.20456 66.3756 5.6711C66.9317 6.13763 67.2117 6.76745 67.2117 7.56445C67.2117 8.0271 67.1028 8.43531 66.885 8.79299C66.7722 8.97961 66.6361 9.139 66.4806 9.27119C66.3133 9.41115 66.3483 9.67163 66.535 9.78438C66.7878 9.93211 67.0056 10.1265 67.1883 10.3675H67.1922ZM63.7233 6.20761H62.8172C62.6422 6.20761 62.5022 6.34757 62.5022 6.52252V8.70357C62.5022 8.87852 62.6422 9.01848 62.8172 9.01848H63.6844C64.2989 9.01848 64.7539 8.90185 65.0417 8.66469C65.3294 8.43143 65.4772 8.06209 65.4772 7.56445C65.4772 6.65859 64.8939 6.20761 63.7272 6.20761H63.7233ZM65.0961 13.0929C65.3839 12.9996 65.5939 12.8441 65.7222 12.6302C65.8506 12.4164 65.9128 12.1209 65.9128 11.7399C65.9128 11.1956 65.7572 10.8108 65.4461 10.5814C65.135 10.352 64.61 10.2354 63.8789 10.2354H62.8211C62.6461 10.2354 62.5061 10.3753 62.5061 10.5503V12.9218C62.5061 13.0968 62.6461 13.2367 62.8211 13.2367H63.9061C64.4117 13.2367 64.8122 13.1901 65.1 13.0929H65.0961Z" fill="#000042"/>
<path d="M69.9845 4.97129H71.0656C71.2406 4.97129 71.3806 5.11125 71.3806 5.2862V14.1581C71.3806 14.3331 71.2406 14.4731 71.0656 14.4731H69.9845C69.8095 14.4731 69.6694 14.3331 69.6694 14.1581V5.2862C69.6694 5.11125 69.8095 4.97129 69.9845 4.97129Z" fill="#000042"/>
<path d="M79.3256 14.4731C79.1739 14.4731 79.0456 14.3642 79.0183 14.2165C78.8822 13.5322 78.6567 12.9179 78.3378 12.3698C78.0306 11.8449 77.6494 11.3084 77.1867 10.768C77.0622 10.6203 76.8328 10.6203 76.7045 10.768C76.2417 11.3006 75.8567 11.8332 75.5495 12.362C75.2267 12.914 74.9972 13.5322 74.8611 14.2126C74.83 14.3603 74.7056 14.4692 74.5539 14.4692H73.4378C73.2356 14.4692 73.0878 14.2826 73.1306 14.0843C73.2628 13.4933 73.4494 12.9568 73.6828 12.467C73.9667 11.876 74.2856 11.355 74.6394 10.9079C74.9428 10.5192 75.3083 10.1032 75.7361 9.65219C75.8489 9.53167 75.8528 9.34117 75.7361 9.22065C75.0983 8.53251 74.5811 7.89102 74.1844 7.2923C73.8111 6.73246 73.5311 6.08709 73.3445 5.36396C73.2939 5.16568 73.4456 4.97129 73.6478 4.97129H74.7406C74.8883 4.97129 75.0089 5.07238 75.0478 5.21234C75.1956 5.79162 75.4094 6.31647 75.6972 6.783C75.9694 7.22621 76.3078 7.6772 76.7083 8.13595C76.8367 8.2798 77.0622 8.2798 77.1867 8.13595C77.5872 7.6772 77.9217 7.22232 78.19 6.77523C78.4739 6.30481 78.6878 5.78384 78.8317 5.21234C78.8667 5.07238 78.9911 4.97129 79.1389 4.97129H80.2472C80.4533 4.97129 80.605 5.16568 80.5506 5.36396C80.3639 6.08709 80.0839 6.73246 79.7106 7.30008C79.3139 7.90269 78.7928 8.54028 78.1511 9.21676C78.0345 9.34117 78.0345 9.53167 78.1511 9.65219C78.575 10.0954 78.9406 10.5114 79.2517 10.9002C79.6094 11.3512 79.9322 11.876 80.2161 12.467C80.4495 12.9568 80.6361 13.4933 80.7683 14.0843C80.8111 14.2826 80.6633 14.4692 80.4611 14.4692H79.3295L79.3256 14.4731Z" fill="#000042"/>
<path d="M10.1228 10.7213C10.8111 9.92823 11.3867 9.14678 11.8533 8.37311C11.9078 8.2798 11.9583 8.18261 12.0128 8.08541H10.2161C10.1617 8.08541 10.1189 8.04265 10.1189 7.98822C10.1189 7.93379 10.1617 7.89102 10.2161 7.89102H12.1178C12.2344 7.66553 12.3433 7.43615 12.4444 7.199H9.15444C9.08444 7.199 9.02611 7.14068 9.02611 7.0707C9.02611 7.00072 9.08444 6.9424 9.15444 6.9424H12.5456C12.6233 6.74024 12.7011 6.53807 12.7672 6.32813H8.155C8.015 6.32813 7.90222 6.21539 7.90222 6.07543C7.90222 5.93547 8.015 5.82272 8.155 5.82272H12.915C12.9267 5.77218 12.9461 5.72552 12.9578 5.67498C13.02 5.43005 13.2339 5.25899 13.4867 5.25899H15.3961C15.75 5.25899 16.0106 5.59334 15.9211 5.93547C15.5983 7.18733 15.1161 8.29924 14.4744 9.27508C13.79 10.3131 12.8917 11.4134 11.7794 12.5875L10.1189 10.7213H10.1228ZM7.60667 13.3495C6.87556 14.1232 6.24944 14.8385 5.72833 15.5033C5.11778 16.277 4.56944 17.1751 4.07556 18.1976C3.67111 19.0412 3.35222 19.9704 3.12278 20.989C3.045 21.3272 3.30556 21.6538 3.65167 21.6538H5.57667C5.83722 21.6538 6.05889 21.4633 6.10944 21.2067C6.11722 21.1756 6.12111 21.1484 6.12889 21.1173H10.9356C11.0756 21.1173 11.1883 21.0045 11.1883 20.8646C11.1883 20.7246 11.0756 20.6119 10.9356 20.6119H6.24556C6.3 20.4019 6.35444 20.1998 6.42056 19.9976H9.93611C10.0061 19.9976 10.0644 19.9393 10.0644 19.8693C10.0644 19.7993 10.0061 19.741 9.93611 19.741H6.50611C6.71611 19.1267 6.98056 18.5513 7.29556 18.0109C7.82833 17.0973 8.49333 16.1798 9.29056 15.2584L7.60278 13.3534L7.60667 13.3495ZM10.5156 12.0821C9.50833 11.0596 8.76167 10.0798 8.76167 10.0798C8.30278 9.50834 7.89833 8.94461 7.55611 8.38477C7.06222 7.58 6.615 6.39422 6.36222 5.39117C6.3 5.14624 6.08611 4.97129 5.83333 4.97129H3.94722C3.59333 4.97129 3.33278 5.30564 3.42222 5.64777C3.745 6.89575 4.30111 8.29147 4.94667 9.25953C5.45611 10.0293 6.08611 10.8419 6.82889 11.6972C6.83667 11.7049 6.84833 11.7205 6.85611 11.7283C7.10111 12.0082 7.35778 12.2959 7.63 12.5875C7.65722 12.6186 7.68444 12.6536 7.70389 12.6886C8.12389 13.1551 8.59056 13.6722 8.90944 13.9871C9.60944 14.6869 10.3833 15.4178 10.885 16.1876C10.8928 16.2031 10.9006 16.2109 10.9083 16.2264C11.3672 16.8291 11.7756 17.4278 12.1178 18.0187C12.6661 18.9634 13.1483 20.3553 13.3856 21.5333C13.4361 21.7899 13.6578 21.9804 13.9183 21.9804H15.8706C16.2167 21.9804 16.4772 21.6538 16.3994 21.3156C16.17 20.297 15.7578 19.0373 15.3533 18.1937C14.8633 17.1712 14.3072 16.2692 13.6889 15.4878C13.1561 14.8152 12.5261 14.0998 11.795 13.3339" fill="#E66B23"/>
</g>
<defs>
<clipPath id="clip0_69_22">
<rect width="77.7778" height="18.9608" fill="white" transform="translate(3.11111 3.01962)"/>
</clipPath>
</defs>
</svg>
