<svg width="325" height="96" viewBox="0 0 325 96" fill="none" xmlns="http://www.w3.org/2000/svg">
<g clip-path="url(#clip0_69_22)">
<path d="M84.3495 82.9616V66.641H87.1782C88.4271 66.641 89.3148 66.7012 89.8715 66.8215C90.4282 66.9418 90.8947 67.1524 91.2708 67.4382C91.8125 67.8444 92.2187 68.3408 92.5046 68.9424C92.7905 69.5441 92.9259 70.1909 92.9259 70.8979C92.9259 71.7703 92.7002 72.5074 92.2488 73.1241C91.7975 73.7408 91.1655 74.1319 90.3681 74.3275C91.4213 74.4779 92.2338 74.8991 92.8356 75.591C93.4375 76.283 93.7234 77.1403 93.7234 78.1933C93.7234 78.9604 93.603 79.6373 93.3773 80.239C93.1516 80.8407 92.7905 81.3521 92.3241 81.7733C91.8426 82.2246 91.2708 82.5404 90.6088 82.7209C89.9468 82.9015 88.8032 82.9917 87.1782 82.9917H84.3194L84.3495 82.9616ZM85.8391 73.8913H87.6898C89.044 73.8913 90.0069 73.6656 90.5787 73.2294C91.1354 72.7782 91.4213 72.0411 91.4213 71.0032C91.4213 69.875 91.1505 69.0929 90.6088 68.6266C90.0671 68.1602 89.0891 67.9346 87.7049 67.9346H85.8542V73.9063L85.8391 73.8913ZM85.8391 81.668H87.735C88.8183 81.668 89.5556 81.6229 89.9618 81.5326C90.3681 81.4424 90.7141 81.292 91 81.0814C91.3461 80.8106 91.6319 80.4496 91.8426 79.9683C92.0532 79.502 92.1586 78.9905 92.1586 78.4641C92.1586 77.8172 92.0382 77.2306 91.8125 76.7342C91.5868 76.2378 91.2558 75.8768 90.8495 75.6211C90.5637 75.4556 90.2326 75.3353 89.8565 75.2751C89.4803 75.215 88.8785 75.1698 88.066 75.1698H85.8391V81.668Z" fill="#000042"/>
<path d="M119.829 82.9616V66.641H121.318V82.9616H119.829Z" fill="#000042"/>
<path d="M164.938 74.8239C164.938 75.9821 164.712 77.0651 164.275 78.103C163.839 79.1409 163.207 80.0585 162.38 80.8708C161.537 81.683 160.589 82.3148 159.536 82.736C158.483 83.1572 157.369 83.3828 156.181 83.3828C154.992 83.3828 153.894 83.1722 152.84 82.736C151.787 82.3148 150.839 81.683 150.012 80.8708C149.184 80.0435 148.537 79.1109 148.116 78.088C147.679 77.0651 147.469 75.9671 147.469 74.8088C147.469 73.6506 147.679 72.5375 148.116 71.4996C148.552 70.4617 149.184 69.5291 150.012 68.7018C150.824 67.8895 151.757 67.2728 152.81 66.8666C153.863 66.4455 154.977 66.2349 156.181 66.2349C157.384 66.2349 158.513 66.4455 159.566 66.8666C160.619 67.2878 161.552 67.9045 162.38 68.7018C163.207 69.5291 163.854 70.4617 164.275 71.4996C164.712 72.5375 164.922 73.6356 164.922 74.8088L164.938 74.8239ZM156.196 82.0591C157.159 82.0591 158.076 81.8786 158.934 81.5176C159.792 81.1566 160.574 80.6451 161.266 79.9532C161.943 79.2613 162.455 78.4791 162.816 77.5916C163.177 76.7041 163.358 75.7866 163.358 74.8088C163.358 73.8311 163.177 72.8985 162.816 72.0261C162.455 71.1536 161.943 70.3714 161.251 69.6645C160.574 68.9876 159.807 68.4611 158.934 68.1001C158.061 67.7391 157.144 67.5586 156.166 67.5586C155.187 67.5586 154.285 67.7391 153.427 68.1001C152.569 68.4611 151.802 68.9725 151.11 69.6645C150.433 70.3714 149.906 71.1536 149.545 72.0261C149.184 72.8985 149.003 73.8161 149.003 74.8088C149.003 75.8016 149.184 76.7192 149.545 77.5916C149.906 78.464 150.418 79.2462 151.11 79.9532C151.802 80.6451 152.554 81.1716 153.412 81.5176C154.255 81.8636 155.172 82.0441 156.166 82.0441L156.196 82.0591Z" fill="#000042"/>
<path d="M196.189 68.8823V82.9616H193.541V68.8823H189.207V66.626H200.522V68.8823H196.204H196.189Z" fill="#000042"/>
<path d="M225.378 82.9616V66.641H234.497V68.8973H228.042V72.9887H234.497V75.3203H228.042V80.6H234.497V82.9767H225.378V82.9616Z" fill="#000042"/>
<path d="M273.481 70.5971C272.729 69.9503 271.932 69.4839 271.104 69.153C270.262 68.8371 269.389 68.6717 268.471 68.6717C266.681 68.6717 265.236 69.2433 264.108 70.3865C262.994 71.5297 262.422 73.0188 262.422 74.8389C262.422 76.659 262.964 78.0579 264.063 79.2011C265.146 80.3443 266.53 80.9159 268.185 80.9159C269.148 80.9159 270.066 80.7504 270.939 80.4045C271.811 80.0585 272.654 79.5471 273.451 78.8551V81.8485C272.744 82.3599 271.962 82.751 271.119 82.9917C270.277 83.2474 269.374 83.3678 268.381 83.3678C267.132 83.3678 265.973 83.1572 264.92 82.751C263.867 82.3449 262.934 81.7432 262.122 80.946C261.324 80.1638 260.707 79.2462 260.286 78.1933C259.865 77.1404 259.639 76.0122 259.639 74.8088C259.639 73.6055 259.85 72.4924 260.286 71.4394C260.707 70.3865 261.339 69.4689 262.137 68.6717C262.949 67.8744 263.882 67.2577 264.92 66.8516C265.973 66.4455 267.102 66.2349 268.321 66.2349C269.284 66.2349 270.201 66.3702 271.059 66.656C271.932 66.9418 272.774 67.363 273.587 67.9196L273.436 70.5971H273.481Z" fill="#000042"/>
<path d="M299.617 82.9616V66.641H302.265V72.6578H310.3V66.641H312.948V82.9616H310.3V75.0345H302.265V82.9616H299.617Z" fill="#000042"/>
<path d="M127.863 22.4926C129.804 24.3729 130.782 26.915 130.782 30.1189V53.9004C130.782 54.5773 130.241 55.1188 129.564 55.1188H128.51C127.833 55.1188 127.292 54.5773 127.292 53.9004V30.2994C127.292 25.1099 124.674 22.5076 119.438 22.5076C117.587 22.5076 115.766 22.9288 113.991 23.7712C112.381 24.5383 110.891 25.6213 109.522 27.0203C109.266 27.276 109.161 27.652 109.206 28.0281C109.281 28.6147 109.311 29.2164 109.311 29.8632V53.9004C109.311 54.5773 108.77 55.1188 108.093 55.1188H107.039C106.362 55.1188 105.821 54.5773 105.821 53.9004V29.9835C105.821 27.5317 105.234 25.6815 104.075 24.418C102.917 23.1544 101.216 22.5227 98.9745 22.5227C95.1829 22.5227 91.647 24.1472 88.382 27.4113C88.1563 27.637 88.0208 27.9529 88.0208 28.2687V53.9004C88.0208 54.5773 87.4792 55.1188 86.8021 55.1188H85.7489C85.0718 55.1188 84.5301 54.5773 84.5301 53.9004V30.5551C84.5301 27.3512 84.4699 25.0648 84.3646 23.6809C84.3044 22.9138 84.2141 22.2971 84.0938 21.8307C83.9583 21.2592 84.2292 20.6725 84.7708 20.4318C85.3426 20.1761 85.8692 20.0407 86.3507 20.0407C87.4491 20.0407 87.9907 21.3644 87.9907 24.0269V24.2826C91.331 21.199 95.1227 19.6647 99.3808 19.6647C101.367 19.6647 103.112 20.1009 104.602 20.9583C105.7 21.5901 106.603 22.4174 107.325 23.4252C107.747 23.9968 108.559 24.0871 109.101 23.6208C112.17 20.9884 115.796 19.6647 119.949 19.6647C123.244 19.6647 125.862 20.5973 127.803 22.4776L127.863 22.4926Z" fill="#000042"/>
<path d="M168.218 38.1664H144.535C143.828 38.1664 143.271 38.7681 143.316 39.4751C143.602 43.371 144.685 46.4847 146.536 48.8312C148.597 51.4335 151.396 52.7271 154.887 52.7271C157.249 52.7271 159.25 52.2909 160.875 51.4034C162.5 50.5159 163.929 49.0869 165.148 47.1014C165.615 46.3794 166.126 46.0184 166.668 46.0184C166.939 46.0184 167.285 46.1237 167.721 46.3192C168.323 46.605 168.609 47.327 168.323 47.9287C167.255 50.2602 165.66 52.0953 163.568 53.4491C161.161 54.9834 158.272 55.7656 154.887 55.7656C151.802 55.7656 149.124 55.0285 146.852 53.5544C144.565 52.0803 142.804 49.9744 141.571 47.2518C140.322 44.5292 139.705 41.3403 139.705 37.655C139.705 31.9992 141.059 27.5919 143.782 24.433C146.506 21.2742 150.297 19.6797 155.142 19.6797C159.656 19.6797 163.177 21.0937 165.69 23.9216C168.203 26.7495 169.451 30.6755 169.451 35.6995C169.451 36.1658 169.451 36.602 169.421 37.0383C169.391 37.67 168.85 38.1664 168.203 38.1664H168.218ZM164.667 35.2483C165.359 35.2483 165.916 34.6616 165.885 33.9697C165.705 30.51 164.787 27.8175 163.132 25.9071C161.281 23.7712 158.558 22.7182 154.962 22.7182C151.591 22.7182 148.868 23.8163 146.822 26.0124C145.016 27.9529 143.888 30.5702 143.451 33.8794C143.361 34.6014 143.933 35.2483 144.655 35.2483H164.667Z" fill="#000042"/>
<path d="M194.534 53.1633C194.534 53.8853 194.233 54.4118 193.646 54.7427C192.337 55.4196 190.486 55.7506 188.079 55.7506C185.461 55.7506 183.354 54.9533 181.744 53.3739C180.134 51.7945 179.337 49.7187 179.337 47.1465V24.3729C179.337 23.696 178.795 23.1544 178.118 23.1544H173.965C173.288 23.1544 172.747 22.6129 172.747 21.936V21.5149C172.747 20.838 173.288 20.2965 173.965 20.2965H178.118C178.795 20.2965 179.337 19.7549 179.337 19.0781V12.0384C179.337 11.3615 179.878 10.82 180.556 10.82H181.609C182.286 10.82 182.828 11.3615 182.828 12.0384V19.1081C182.828 19.785 183.369 20.3265 184.046 20.3265H191.554C192.231 20.3265 192.773 20.8681 192.773 21.5449V21.9661C192.773 22.643 192.231 23.1845 191.554 23.1845H184.046C183.369 23.1845 182.828 23.726 182.828 24.4029V46.4847C182.828 48.5454 183.294 50.1098 184.227 51.1627C185.16 52.2157 186.484 52.7421 188.214 52.7421C189.944 52.7421 191.419 52.4564 192.894 51.8697C193.601 51.599 194.398 52.0352 194.519 52.7722C194.534 52.9076 194.549 53.043 194.549 53.1784L194.534 53.1633Z" fill="#000042"/>
<path d="M226.281 51.2981C226.507 52.0352 226.838 52.7121 227.274 53.2987C227.696 53.8553 227.545 54.6675 226.958 55.0285C226.492 55.2993 226.056 55.4347 225.634 55.4347C224.747 55.4347 224.024 54.8781 223.453 53.75C223.167 53.1934 222.941 52.5466 222.76 51.7945C222.55 50.8769 221.391 50.5761 220.714 51.2229C219.571 52.321 218.231 53.2536 216.697 54.0057C214.335 55.1639 211.822 55.7506 209.159 55.7506C206.119 55.7506 203.637 54.8932 201.726 53.1934C199.8 51.4786 198.852 49.2825 198.852 46.5749C198.852 42.6489 200.838 39.5804 204.81 37.3692C208.572 35.2633 214.034 34.0148 221.196 33.5936C221.843 33.5635 222.354 33.022 222.354 32.3752V31.5028C222.354 25.5461 219.33 22.5829 213.296 22.5829C211.19 22.5829 209.234 22.989 207.443 23.7862C205.653 24.5834 203.892 25.8771 202.162 27.652C201.951 27.8626 201.65 27.9679 201.274 27.9679C200.898 27.9679 200.492 27.8175 200.071 27.5317C199.935 27.4414 199.815 27.3361 199.694 27.2158C199.198 26.7495 199.183 25.9673 199.664 25.4709C201.319 23.7411 203.26 22.3873 205.457 21.3945C207.985 20.2513 210.663 19.6797 213.492 19.6797C217.374 19.6797 220.398 20.7176 222.58 22.8085C224.747 24.8993 225.845 27.8024 225.845 31.5178V46.7705C225.845 48.7109 225.995 50.2151 226.326 51.2981H226.281ZM216.501 50.7867C218.638 49.478 220.519 47.6429 222.113 45.3114C222.249 45.1158 222.324 44.8601 222.324 44.6195V37.7302C222.324 37.0232 221.722 36.4817 221.03 36.5118C214.966 36.8728 210.392 37.8204 207.323 39.3547C204.028 40.9943 202.388 43.386 202.388 46.4997C202.388 48.4853 203.02 50.0346 204.284 51.1477C205.547 52.2608 207.278 52.8324 209.475 52.8324C211.927 52.8324 214.259 52.1405 216.501 50.7716V50.7867Z" fill="#000042"/>
<path d="M259.97 39.2494C261.144 40.8138 261.73 42.5888 261.73 44.5743C261.73 47.9287 260.587 50.531 258.285 52.3661C255.998 54.2012 252.733 55.1188 248.49 55.1188H236.362C235.685 55.1188 235.144 54.5773 235.144 53.9004V19.5895C235.144 18.9126 235.685 18.3711 236.362 18.3711H247.963C251.71 18.3711 254.659 19.2736 256.81 21.0786C258.962 22.8837 260.045 25.3205 260.045 28.4041C260.045 30.1941 259.624 31.7735 258.781 33.1574C258.345 33.8794 257.818 34.4961 257.216 35.0076C256.569 35.5491 256.705 36.5569 257.427 36.9931C258.405 37.5647 259.248 38.3168 259.955 39.2494H259.97ZM246.549 23.1544H243.043C242.366 23.1544 241.824 23.696 241.824 24.3729V32.8114C241.824 33.4883 242.366 34.0298 243.043 34.0298H246.398C248.775 34.0298 250.536 33.5786 251.649 32.661C252.763 31.7585 253.334 30.3295 253.334 28.4041C253.334 24.8993 251.078 23.1544 246.564 23.1544H246.549ZM251.86 49.7939C252.973 49.4329 253.786 48.8312 254.282 48.0039C254.779 47.1766 255.02 46.0334 255.02 44.5593C255.02 42.4534 254.418 40.9642 253.214 40.0767C252.01 39.1893 249.979 38.738 247.15 38.738H243.058C242.381 38.738 241.839 39.2795 241.839 39.9564V49.1321C241.839 49.8089 242.381 50.3505 243.058 50.3505H247.256C249.212 50.3505 250.762 50.17 251.875 49.7939H251.86Z" fill="#000042"/>
<path d="M270.773 18.3711H274.956C275.633 18.3711 276.175 18.9126 276.175 19.5895V53.9154C276.175 54.5923 275.633 55.1338 274.956 55.1338H270.773C270.096 55.1338 269.554 54.5923 269.554 53.9154V19.5895C269.554 18.9126 270.096 18.3711 270.773 18.3711Z" fill="#000042"/>
<path d="M306.914 55.1338C306.328 55.1338 305.831 54.7127 305.726 54.1411C305.199 51.4937 304.326 49.117 303.093 46.9961C301.904 44.9654 300.429 42.8896 298.639 40.7988C298.157 40.2272 297.27 40.2272 296.773 40.7988C294.983 42.8595 293.493 44.9203 292.304 46.966C291.056 49.102 290.168 51.4937 289.641 54.126C289.521 54.6976 289.039 55.1188 288.453 55.1188H284.134C283.352 55.1188 282.78 54.3968 282.946 53.6296C283.457 51.3432 284.179 49.2674 285.082 47.3721C286.181 45.0857 287.414 43.0701 288.784 41.3403C289.957 39.8361 291.372 38.2266 293.027 36.4817C293.463 36.0154 293.478 35.2783 293.027 34.812C290.559 32.1496 288.558 29.6677 287.023 27.3512C285.579 25.1851 284.495 22.6881 283.773 19.8903C283.578 19.1232 284.164 18.3711 284.947 18.3711H289.175C289.747 18.3711 290.213 18.7622 290.363 19.3037C290.935 21.5449 291.763 23.5756 292.876 25.3807C293.929 27.0955 295.238 28.8403 296.788 30.6153C297.285 31.1719 298.157 31.1719 298.639 30.6153C300.189 28.8403 301.483 27.0804 302.521 25.3506C303.619 23.5305 304.447 21.5149 305.003 19.3037C305.139 18.7622 305.62 18.3711 306.192 18.3711H310.48C311.278 18.3711 311.865 19.1232 311.654 19.8903C310.932 22.6881 309.848 25.1851 308.404 27.3813C306.869 29.7128 304.853 32.1797 302.37 34.797C301.919 35.2783 301.919 36.0154 302.37 36.4817C304.01 38.1965 305.425 39.806 306.628 41.3102C308.013 43.0551 309.262 45.0857 310.36 47.3721C311.263 49.2674 311.985 51.3432 312.497 53.6296C312.662 54.3968 312.09 55.1188 311.308 55.1188H306.929L306.914 55.1338Z" fill="#000042"/>
<path d="M39.1655 40.6183C41.8287 37.5497 44.0556 34.5262 45.8611 31.5329C46.0718 31.1719 46.2674 30.7958 46.478 30.4198H39.5266C39.316 30.4198 39.1505 30.2543 39.1505 30.0437C39.1505 29.8331 39.316 29.6677 39.5266 29.6677H46.8843C47.3356 28.7952 47.7569 27.9077 48.1481 26.9902H35.419C35.1481 26.9902 34.9225 26.7645 34.9225 26.4938C34.9225 26.223 35.1481 25.9974 35.419 25.9974H48.5394C48.8403 25.2152 49.1412 24.433 49.397 23.6208H31.5521C31.0104 23.6208 30.5741 23.1845 30.5741 22.643C30.5741 22.1015 31.0104 21.6653 31.5521 21.6653H49.9687C50.0139 21.4697 50.0891 21.2892 50.1343 21.0937C50.375 20.146 51.2025 19.4842 52.1806 19.4842H59.5683C60.9375 19.4842 61.9456 20.7778 61.5995 22.1015C60.3507 26.945 58.485 31.2471 56.0023 35.0226C53.3542 39.0388 49.8785 43.2957 45.5752 47.8384L39.1505 40.6183H39.1655ZM29.4306 50.7867C26.6019 53.78 24.1794 56.5478 22.1632 59.12C19.8009 62.1133 17.6794 65.5881 15.7685 69.5441C14.2037 72.8082 12.9699 76.4033 12.0822 80.3443C11.7812 81.653 12.7894 82.9165 14.1285 82.9165H21.5764C22.5845 82.9165 23.4421 82.1794 23.6377 81.1867C23.6678 81.0663 23.6829 80.961 23.713 80.8407H42.3102C42.8519 80.8407 43.2882 80.4045 43.2882 79.863C43.2882 79.3214 42.8519 78.8852 42.3102 78.8852H24.1644C24.375 78.073 24.5856 77.2908 24.8414 76.5086H38.4433C38.7141 76.5086 38.9398 76.2829 38.9398 76.0122C38.9398 75.7414 38.7141 75.5158 38.4433 75.5158H25.1725C25.985 73.1392 27.0081 70.9129 28.2269 68.8221C30.2882 65.2872 32.8611 61.7373 35.9456 58.1723L29.4155 50.8017L29.4306 50.7867ZM40.6852 45.883C36.7882 41.9269 33.8993 38.1363 33.8993 38.1363C32.1238 35.9251 30.559 33.744 29.235 31.578C27.3241 28.4643 25.5937 23.8765 24.6157 19.9956C24.375 19.048 23.5475 18.3711 22.5694 18.3711H15.272C13.9028 18.3711 12.8947 19.6647 13.2407 20.9884C14.4896 25.8169 16.6412 31.217 19.1389 34.9625C21.11 37.9408 23.5475 41.0846 26.4213 44.3938C26.4514 44.4239 26.4965 44.4841 26.5266 44.5141C27.4745 45.5972 28.4676 46.7103 29.5208 47.8384C29.6262 47.9588 29.7315 48.0942 29.8067 48.2295C31.4317 50.0346 33.2373 52.0352 34.4711 53.2536C37.1794 55.9611 40.1736 58.789 42.1146 61.7674C42.1447 61.8275 42.1748 61.8576 42.2049 61.9178C43.9803 64.2493 45.5602 66.5658 46.8843 68.8522C49.0058 72.5074 50.8715 77.8924 51.7894 82.4502C51.985 83.443 52.8426 84.18 53.8507 84.18H61.4039C62.7431 84.18 63.7512 82.9165 63.4502 81.6078C62.5625 77.6668 60.9676 72.7932 59.4028 69.5291C57.5069 65.573 55.3553 62.0833 52.963 59.0598C50.9016 56.4575 48.4641 53.6898 45.6354 50.7265" fill="#E66B23"/>
</g>
<defs>
<clipPath id="clip0_69_22">
<rect width="300.926" height="73.3601" fill="white" transform="translate(12.037 10.82)"/>
</clipPath>
</defs>
</svg>
