<svg width="216" height="64" viewBox="0 0 216 64" fill="none" xmlns="http://www.w3.org/2000/svg">
<g clip-path="url(#clip0_69_22)">
<path d="M56.06 55.1862V44.285H57.94C58.77 44.285 59.36 44.3252 59.73 44.4056C60.1 44.486 60.41 44.6266 60.66 44.8175C61.02 45.0888 61.29 45.4203 61.48 45.8222C61.67 46.2241 61.76 46.6561 61.76 47.1284C61.76 47.7111 61.61 48.2034 61.31 48.6153C61.01 49.0273 60.59 49.2885 60.06 49.4191C60.76 49.5196 61.3 49.8009 61.7 50.2631C62.1 50.7252 62.29 51.2979 62.29 52.0012C62.29 52.5136 62.21 52.9658 62.06 53.3676C61.91 53.7695 61.67 54.1111 61.36 54.3925C61.04 54.6939 60.66 54.9049 60.22 55.0254C59.78 55.146 59.02 55.2063 57.94 55.2063H56.04L56.06 55.1862ZM57.05 49.1277H58.28C59.18 49.1277 59.82 48.977 60.2 48.6857C60.57 48.3843 60.76 47.8919 60.76 47.1987C60.76 46.4451 60.58 45.9227 60.22 45.6112C59.86 45.2998 59.21 45.1491 58.29 45.1491H57.06V49.1378L57.05 49.1277ZM57.05 54.3221H58.31C59.03 54.3221 59.52 54.292 59.79 54.2317C60.06 54.1714 60.29 54.0709 60.48 53.9303C60.71 53.7494 60.9 53.5083 61.04 53.1868C61.18 52.8753 61.25 52.5337 61.25 52.1821C61.25 51.7501 61.17 51.3582 61.02 51.0267C60.87 50.6951 60.65 50.454 60.38 50.2832C60.19 50.1726 59.97 50.0923 59.72 50.0521C59.47 50.0119 59.07 49.9817 58.53 49.9817H57.05V54.3221Z" fill="white"/>
<path d="M79.64 55.1862V44.285H80.63V55.1862H79.64Z" fill="white"/>
<path d="M109.62 49.7507C109.62 50.5243 109.47 51.2477 109.18 51.9409C108.89 52.6342 108.47 53.2471 107.92 53.7896C107.36 54.3322 106.73 54.7542 106.03 55.0355C105.33 55.3168 104.59 55.4675 103.8 55.4675C103.01 55.4675 102.28 55.3268 101.58 55.0355C100.88 54.7542 100.25 54.3322 99.7 53.7896C99.15 53.237 98.72 52.6141 98.44 51.9309C98.15 51.2477 98.01 50.5142 98.01 49.7406C98.01 48.967 98.15 48.2235 98.44 47.5302C98.73 46.837 99.15 46.2141 99.7 45.6615C100.24 45.1189 100.86 44.707 101.56 44.4357C102.26 44.1544 103 44.0137 103.8 44.0137C104.6 44.0137 105.35 44.1544 106.05 44.4357C106.75 44.717 107.37 45.129 107.92 45.6615C108.47 46.2141 108.9 46.837 109.18 47.5302C109.47 48.2235 109.61 48.9569 109.61 49.7406L109.62 49.7507ZM103.81 54.5833C104.45 54.5833 105.06 54.4628 105.63 54.2217C106.2 53.9805 106.72 53.6389 107.18 53.1767C107.63 52.7146 107.97 52.1921 108.21 51.5993C108.45 51.0066 108.57 50.3937 108.57 49.7406C108.57 49.0876 108.45 48.4646 108.21 47.8819C107.97 47.2992 107.63 46.7767 107.17 46.3045C106.72 45.8524 106.21 45.5007 105.63 45.2596C105.05 45.0185 104.44 44.8979 103.79 44.8979C103.14 44.8979 102.54 45.0185 101.97 45.2596C101.4 45.5007 100.89 45.8423 100.43 46.3045C99.98 46.7767 99.63 47.2992 99.39 47.8819C99.15 48.4646 99.03 49.0775 99.03 49.7406C99.03 50.4037 99.15 51.0166 99.39 51.5993C99.63 52.1821 99.97 52.7045 100.43 53.1767C100.89 53.6389 101.39 53.9906 101.96 54.2217C102.52 54.4527 103.13 54.5733 103.79 54.5733L103.81 54.5833Z" fill="white"/>
<path d="M130.39 45.782V55.1862H128.63V45.782H125.75V44.275H133.27V45.782H130.4H130.39Z" fill="white"/>
<path d="M149.79 55.1862V44.285H155.85V45.7921H151.56V48.5249H155.85V50.0822H151.56V53.6088H155.85V55.1962H149.79V55.1862Z" fill="white"/>
<path d="M181.76 46.9274C181.26 46.4954 180.73 46.1839 180.18 45.9629C179.62 45.7519 179.04 45.6414 178.43 45.6414C177.24 45.6414 176.28 46.0232 175.53 46.7868C174.79 47.5503 174.41 48.545 174.41 49.7607C174.41 50.9764 174.77 51.9108 175.5 52.6744C176.22 53.438 177.14 53.8198 178.24 53.8198C178.88 53.8198 179.49 53.7092 180.07 53.4782C180.65 53.2471 181.21 52.9055 181.74 52.4433V54.4427C181.27 54.7843 180.75 55.0455 180.19 55.2063C179.63 55.3771 179.03 55.4575 178.37 55.4575C177.54 55.4575 176.77 55.3168 176.07 55.0455C175.37 54.7742 174.75 54.3724 174.21 53.8399C173.68 53.3174 173.27 52.7045 172.99 52.0012C172.71 51.2979 172.56 50.5444 172.56 49.7406C172.56 48.9368 172.7 48.1934 172.99 47.4901C173.27 46.7868 173.69 46.1739 174.22 45.6414C174.76 45.1089 175.38 44.6969 176.07 44.4257C176.77 44.1544 177.52 44.0137 178.33 44.0137C178.97 44.0137 179.58 44.1042 180.15 44.2951C180.73 44.486 181.29 44.7673 181.83 45.139L181.73 46.9274H181.76Z" fill="white"/>
<path d="M199.13 55.1862V44.285H200.89V48.3039H206.23V44.285H207.99V55.1862H206.23V49.8913H200.89V55.1862H199.13Z" fill="white"/>
<path d="M84.98 14.7966C86.27 16.0525 86.92 17.7505 86.92 19.8905V35.7751C86.92 36.2272 86.56 36.5889 86.11 36.5889H85.41C84.96 36.5889 84.6 36.2272 84.6 35.7751V20.0111C84.6 16.5448 82.86 14.8066 79.38 14.8066C78.15 14.8066 76.94 15.088 75.76 15.6506C74.69 16.163 73.7 16.8864 72.79 17.8208C72.62 17.9916 72.55 18.2428 72.58 18.494C72.63 18.8858 72.65 19.2877 72.65 19.7197V35.7751C72.65 36.2272 72.29 36.5889 71.84 36.5889H71.14C70.69 36.5889 70.33 36.2272 70.33 35.7751V19.8001C70.33 18.1624 69.94 16.9266 69.17 16.0826C68.4 15.2387 67.27 14.8167 65.78 14.8167C63.26 14.8167 60.91 15.9018 58.74 18.082C58.59 18.2327 58.5 18.4437 58.5 18.6547V35.7751C58.5 36.2272 58.14 36.5889 57.69 36.5889H56.99C56.54 36.5889 56.18 36.2272 56.18 35.7751V20.1819C56.18 18.0418 56.14 16.5147 56.07 15.5903C56.03 15.0779 55.97 14.666 55.89 14.3545C55.8 13.9727 55.98 13.5809 56.34 13.4201C56.72 13.2493 57.07 13.1589 57.39 13.1589C58.12 13.1589 58.48 14.0431 58.48 15.8214V15.9922C60.7 13.9325 63.22 12.9077 66.05 12.9077C67.37 12.9077 68.53 13.1991 69.52 13.7718C70.25 14.1938 70.85 14.7464 71.33 15.4195C71.61 15.8013 72.15 15.8616 72.51 15.5501C74.55 13.7919 76.96 12.9077 79.72 12.9077C81.91 12.9077 83.65 13.5307 84.94 14.7865L84.98 14.7966Z" fill="white"/>
<path d="M111.8 25.2657H96.06C95.59 25.2657 95.22 25.6676 95.25 26.1398C95.44 28.7421 96.16 30.8218 97.39 32.3892C98.76 34.1273 100.62 34.9914 102.94 34.9914C104.51 34.9914 105.84 34.7 106.92 34.1072C108 33.5145 108.95 32.56 109.76 31.2338C110.07 30.7515 110.41 30.5104 110.77 30.5104C110.95 30.5104 111.18 30.5807 111.47 30.7113C111.87 30.9022 112.06 31.3845 111.87 31.7863C111.16 33.3437 110.1 34.5694 108.71 35.4737C107.11 36.4985 105.19 37.0209 102.94 37.0209C100.89 37.0209 99.11 36.5286 97.6 35.544C96.08 34.5594 94.91 33.1528 94.09 31.3342C93.26 29.5157 92.85 27.3857 92.85 24.9241C92.85 21.1464 93.75 18.2026 95.56 16.0927C97.37 13.9828 99.89 12.9178 103.11 12.9178C106.11 12.9178 108.45 13.8622 110.12 15.7511C111.79 17.6399 112.62 20.2623 112.62 23.618C112.62 23.9295 112.62 24.2208 112.6 24.5122C112.58 24.9342 112.22 25.2657 111.79 25.2657H111.8ZM109.44 23.3166C109.9 23.3166 110.27 22.9247 110.25 22.4626C110.13 20.1517 109.52 18.3533 108.42 17.0773C107.19 15.6506 105.38 14.9473 102.99 14.9473C100.75 14.9473 98.94 15.6807 97.58 17.1476C96.38 18.4437 95.63 20.1919 95.34 22.4023C95.28 22.8846 95.66 23.3166 96.14 23.3166H109.44Z" fill="white"/>
<path d="M129.29 35.2828C129.29 35.765 129.09 36.1167 128.7 36.3377C127.83 36.7898 126.6 37.0109 125 37.0109C123.26 37.0109 121.86 36.4784 120.79 35.4234C119.72 34.3685 119.19 32.982 119.19 31.2639V16.0525C119.19 15.6004 118.83 15.2387 118.38 15.2387H115.62C115.17 15.2387 114.81 14.877 114.81 14.4249V14.1435C114.81 13.6914 115.17 13.3297 115.62 13.3297H118.38C118.83 13.3297 119.19 12.968 119.19 12.5159V7.81382C119.19 7.3617 119.55 7 120 7H120.7C121.15 7 121.51 7.3617 121.51 7.81382V12.536C121.51 12.9881 121.87 13.3498 122.32 13.3498H127.31C127.76 13.3498 128.12 13.7115 128.12 14.1636V14.4449C128.12 14.8971 127.76 15.2588 127.31 15.2588H122.32C121.87 15.2588 121.51 15.6205 121.51 16.0726V30.8218C121.51 32.1983 121.82 33.2432 122.44 33.9465C123.06 34.6498 123.94 35.0014 125.09 35.0014C126.24 35.0014 127.22 34.8105 128.2 34.4187C128.67 34.2379 129.2 34.5292 129.28 35.0215C129.29 35.1119 129.3 35.2024 129.3 35.2928L129.29 35.2828Z" fill="white"/>
<path d="M150.39 34.0369C150.54 34.5292 150.76 34.9813 151.05 35.3732C151.33 35.7449 151.23 36.2875 150.84 36.5286C150.53 36.7095 150.24 36.7999 149.96 36.7999C149.37 36.7999 148.89 36.4281 148.51 35.6746C148.32 35.3029 148.17 34.8708 148.05 34.3685C147.91 33.7556 147.14 33.5546 146.69 33.9867C145.93 34.7201 145.04 35.343 144.02 35.8454C142.45 36.619 140.78 37.0109 139.01 37.0109C136.99 37.0109 135.34 36.4382 134.07 35.3029C132.79 34.1575 132.16 32.6906 132.16 30.8821C132.16 28.2598 133.48 26.2102 136.12 24.7332C138.62 23.3266 142.25 22.4927 147.01 22.2114C147.44 22.1913 147.78 21.8296 147.78 21.3976V20.8148C147.78 16.8362 145.77 14.8569 141.76 14.8569C140.36 14.8569 139.06 15.1282 137.87 15.6607C136.68 16.1932 135.51 17.0572 134.36 18.2428C134.22 18.3834 134.02 18.4538 133.77 18.4538C133.52 18.4538 133.25 18.3533 132.97 18.1624C132.88 18.1021 132.8 18.0318 132.72 17.9514C132.39 17.6399 132.38 17.1175 132.7 16.7859C133.8 15.6305 135.09 14.7263 136.55 14.0632C138.23 13.2996 140.01 12.9178 141.89 12.9178C144.47 12.9178 146.48 13.611 147.93 15.0076C149.37 16.4041 150.1 18.3432 150.1 20.8249V31.0127C150.1 32.3088 150.2 33.3135 150.42 34.0369H150.39ZM143.89 33.6953C145.31 32.8212 146.56 31.5955 147.62 30.0381C147.71 29.9075 147.76 29.7367 147.76 29.576V24.9744C147.76 24.5022 147.36 24.1405 146.9 24.1606C142.87 24.4017 139.83 25.0347 137.79 26.0595C135.6 27.1546 134.51 28.7521 134.51 30.8319C134.51 32.1581 134.93 33.1929 135.77 33.9364C136.61 34.6799 137.76 35.0617 139.22 35.0617C140.85 35.0617 142.4 34.5996 143.89 33.6853V33.6953Z" fill="white"/>
<path d="M172.78 25.9891C173.56 27.034 173.95 28.2196 173.95 29.5458C173.95 31.7863 173.19 33.5245 171.66 34.7503C170.14 35.976 167.97 36.5889 165.15 36.5889H157.09C156.64 36.5889 156.28 36.2272 156.28 35.7751V12.8575C156.28 12.4054 156.64 12.0437 157.09 12.0437H164.8C167.29 12.0437 169.25 12.6465 170.68 13.8522C172.11 15.0578 172.83 16.6855 172.83 18.7451C172.83 19.9407 172.55 20.9957 171.99 21.92C171.7 22.4023 171.35 22.8142 170.95 23.1558C170.52 23.5175 170.61 24.1907 171.09 24.4821C171.74 24.8639 172.3 25.3662 172.77 25.9891H172.78ZM163.86 15.2387H161.53C161.08 15.2387 160.72 15.6004 160.72 16.0525V21.6889C160.72 22.1411 161.08 22.5028 161.53 22.5028H163.76C165.34 22.5028 166.51 22.2014 167.25 21.5885C167.99 20.9856 168.37 20.0312 168.37 18.7451C168.37 16.4041 166.87 15.2387 163.87 15.2387H163.86ZM167.39 33.0322C168.13 32.7911 168.67 32.3892 169 31.8366C169.33 31.284 169.49 30.5204 169.49 29.5358C169.49 28.1292 169.09 27.1345 168.29 26.5417C167.49 25.9489 166.14 25.6475 164.26 25.6475H161.54C161.09 25.6475 160.73 26.0092 160.73 26.4614V32.5901C160.73 33.0422 161.09 33.4039 161.54 33.4039H164.33C165.63 33.4039 166.66 33.2834 167.4 33.0322H167.39Z" fill="white"/>
<path d="M179.96 12.0437H182.74C183.19 12.0437 183.55 12.4054 183.55 12.8575V35.7851C183.55 36.2372 183.19 36.5989 182.74 36.5989H179.96C179.51 36.5989 179.15 36.2372 179.15 35.7851V12.8575C179.15 12.4054 179.51 12.0437 179.96 12.0437Z" fill="white"/>
<path d="M203.98 36.5989C203.59 36.5989 203.26 36.3176 203.19 35.9358C202.84 34.1675 202.26 32.5801 201.44 31.1634C200.65 29.8071 199.67 28.4205 198.48 27.024C198.16 26.6422 197.57 26.6422 197.24 27.024C196.05 28.4005 195.06 29.7769 194.27 31.1433C193.44 32.57 192.85 34.1675 192.5 35.9258C192.42 36.3076 192.1 36.5889 191.71 36.5889H188.84C188.32 36.5889 187.94 36.1066 188.05 35.5942C188.39 34.067 188.87 32.6805 189.47 31.4146C190.2 29.8874 191.02 28.5411 191.93 27.3857C192.71 26.381 193.65 25.3059 194.75 24.1405C195.04 23.829 195.05 23.3367 194.75 23.0252C193.11 21.2469 191.78 19.5891 190.76 18.0418C189.8 16.595 189.08 14.9272 188.6 13.0584C188.47 12.546 188.86 12.0437 189.38 12.0437H192.19C192.57 12.0437 192.88 12.3049 192.98 12.6666C193.36 14.1636 193.91 15.52 194.65 16.7257C195.35 17.871 196.22 19.0365 197.25 20.2221C197.58 20.5938 198.16 20.5938 198.48 20.2221C199.51 19.0365 200.37 17.861 201.06 16.7056C201.79 15.4899 202.34 14.1435 202.71 12.6666C202.8 12.3049 203.12 12.0437 203.5 12.0437H206.35C206.88 12.0437 207.27 12.546 207.13 13.0584C206.65 14.9272 205.93 16.595 204.97 18.0619C203.95 19.6192 202.61 21.267 200.96 23.0152C200.66 23.3367 200.66 23.829 200.96 24.1405C202.05 25.2858 202.99 26.3609 203.79 27.3656C204.71 28.5311 205.54 29.8874 206.27 31.4146C206.87 32.6805 207.35 34.067 207.69 35.5942C207.8 36.1066 207.42 36.5889 206.9 36.5889H203.99L203.98 36.5989Z" fill="white"/>
<path d="M26.03 26.9034C27.8 24.8538 29.28 22.8343 30.48 20.8349C30.62 20.5938 30.75 20.3426 30.89 20.0914H26.27C26.13 20.0914 26.02 19.9809 26.02 19.8403C26.02 19.6996 26.13 19.5891 26.27 19.5891H31.16C31.46 19.0064 31.74 18.4136 32 17.8007H23.54C23.36 17.8007 23.21 17.65 23.21 17.4691C23.21 17.2883 23.36 17.1376 23.54 17.1376H32.26C32.46 16.6151 32.66 16.0927 32.83 15.5501H20.97C20.61 15.5501 20.32 15.2588 20.32 14.8971C20.32 14.5354 20.61 14.244 20.97 14.244H33.21C33.24 14.1134 33.29 13.9928 33.32 13.8622C33.48 13.2292 34.03 12.7872 34.68 12.7872H39.59C40.5 12.7872 41.17 13.6512 40.94 14.5354C40.11 17.7706 38.87 20.644 37.22 23.1659C35.46 25.8485 33.15 28.6918 30.29 31.7261L26.02 26.9034H26.03ZM19.56 33.6953C17.68 35.6947 16.07 37.5434 14.73 39.2614C13.16 41.2608 11.75 43.5817 10.48 46.2241C9.44 48.4044 8.62 50.8056 8.03 53.438C7.83 54.3121 8.5 55.156 9.39 55.156H14.34C15.01 55.156 15.58 54.6637 15.71 54.0006C15.73 53.9202 15.74 53.8499 15.76 53.7695H28.12C28.48 53.7695 28.77 53.4782 28.77 53.1165C28.77 52.7548 28.48 52.4634 28.12 52.4634H16.06C16.2 51.9209 16.34 51.3984 16.51 50.8759H25.55C25.73 50.8759 25.88 50.7252 25.88 50.5444C25.88 50.3635 25.73 50.2128 25.55 50.2128H16.73C17.27 48.6254 17.95 47.1384 18.76 45.7419C20.13 43.3808 21.84 41.0096 23.89 38.6285L19.55 33.7054L19.56 33.6953ZM27.04 30.4199C24.45 27.7775 22.53 25.2456 22.53 25.2456C21.35 23.7687 20.31 22.3119 19.43 20.8651C18.16 18.7853 17.01 15.7209 16.36 13.1288C16.2 12.4958 15.65 12.0437 15 12.0437H10.15C9.24 12.0437 8.57 12.9077 8.8 13.7919C9.63 17.017 11.06 20.6239 12.72 23.1257C14.03 25.115 15.65 27.2149 17.56 29.4253C17.58 29.4454 17.61 29.4855 17.63 29.5056C18.26 30.229 18.92 30.9725 19.62 31.7261C19.69 31.8064 19.76 31.8969 19.81 31.9873C20.89 33.1929 22.09 34.5292 22.91 35.343C24.71 37.1515 26.7 39.0404 27.99 41.0297C28.01 41.0699 28.03 41.09 28.05 41.1302C29.23 42.6875 30.28 44.2348 31.16 45.7619C32.57 48.2034 33.81 51.8003 34.42 54.8446C34.55 55.5077 35.12 56 35.79 56H40.81C41.7 56 42.37 55.156 42.17 54.2819C41.58 51.6496 40.52 48.3943 39.48 46.2141C38.22 43.5717 36.79 41.2407 35.2 39.2212C33.83 37.4831 32.21 35.6344 30.33 33.6551" fill="white"/>
</g>
<defs>
<clipPath id="clip0_69_22">
<rect width="200" height="49" fill="white" transform="translate(8 7)"/>
</clipPath>
</defs>
</svg>
