<svg width="36" height="36" viewBox="0 0 36 36" fill="none" xmlns="http://www.w3.org/2000/svg">
<path d="M32.7763 16.6203C32.2609 15.9362 30.3463 15.4651 29.5363 14.2339C28.7263 13.0027 28.0633 10.3365 26.0017 9.31203C23.9401 8.28758 19.9998 8 17.7498 8C15.4998 8 11.5623 8.28125 9.49795 9.30992C7.43357 10.3386 6.77334 13.0027 5.96334 14.2318C5.15334 15.4609 3.23873 15.9362 2.72334 16.6203C2.20795 17.3045 1.84514 21.6294 2.06592 23.75C2.2867 25.8706 2.69873 27.125 2.69873 27.125H8.74561C9.73561 27.125 10.0576 26.753 12.0826 26.5625C14.3045 26.3516 16.4842 26.2812 17.7498 26.2812C19.0155 26.2812 21.2655 26.3516 23.4859 26.5625C25.5109 26.7545 25.8435 27.125 26.823 27.125H32.7995C32.7995 27.125 33.2115 25.8706 33.4323 23.75C33.6531 21.6294 33.2889 17.3045 32.7763 16.6203Z" stroke="#595959" stroke-width="2" stroke-linecap="round" stroke-linejoin="round"/>
<path d="M31.9375 27H28V28.125H31.9375V27Z" stroke="#595959" stroke-width="2" stroke-linecap="round" stroke-linejoin="round"/>
<path d="M7.9375 27H4V28.125H7.9375V27Z" stroke="#595959" stroke-width="2" stroke-linecap="round" stroke-linejoin="round"/>
<path d="M25.5018 21.4878C25.0862 21.0076 23.732 20.6068 21.939 20.3382C20.1461 20.0696 19.4922 20 17.889 20C16.2859 20 15.5568 20.1153 13.8383 20.3382C12.1199 20.5611 10.8296 20.9577 10.2763 21.4878C9.4459 22.2922 10.6623 23.195 11.6171 23.3047C12.5425 23.4102 14.3924 23.3715 17.8968 23.3715C21.4011 23.3715 23.2511 23.4102 24.1764 23.3047C25.1298 23.1887 26.259 22.3484 25.5018 21.4878Z" fill="#595959"/>
<path d="M30.5947 17.2173C30.5908 17.1615 30.5664 17.1091 30.5261 17.0701C30.4859 17.0312 30.4327 17.0085 30.3768 17.0064C29.5464 16.9769 28.7033 17.0359 27.2078 17.4768C26.4448 17.6995 25.7283 18.0583 25.0928 18.5357C24.9325 18.6608 24.9894 18.9991 25.1905 19.0349C26.4232 19.1795 27.6633 19.2523 28.9044 19.2529C29.649 19.2529 30.4175 19.0419 30.5603 18.3782C30.633 17.9955 30.6447 17.6037 30.5947 17.2173Z" fill="#595959"/>
<path d="M6.03041 17.2173C6.03436 17.1615 6.05879 17.1091 6.09902 17.0701C6.13925 17.0312 6.19244 17.0085 6.24838 17.0064C7.07877 16.9769 7.92182 17.0359 9.41737 17.4768C10.1804 17.6995 10.8969 18.0583 11.5324 18.5357C11.6927 18.6608 11.6357 18.9991 11.4346 19.0349C10.2019 19.1795 8.96187 19.2523 7.72073 19.2529C6.97612 19.2529 6.2076 19.0419 6.06487 18.3782C5.9921 17.9955 5.98047 17.6037 6.03041 17.2173Z" fill="#595959"/>
<path d="M30 14H31.125" stroke="#595959" stroke-width="2" stroke-linecap="round" stroke-linejoin="round"/>
<path d="M4 14H5.125" stroke="#595959" stroke-width="2" stroke-linecap="round" stroke-linejoin="round"/>
<path d="M5 14.8438C5 14.8438 8.25898 14 17.5156 14C26.7723 14 30.0312 14.8438 30.0312 14.8438" stroke="#595959" stroke-width="2" stroke-linecap="round" stroke-linejoin="round"/>
</svg>
