<svg width="36" height="36" viewBox="0 0 36 36" fill="none" xmlns="http://www.w3.org/2000/svg">
<path d="M17.9375 5C10.793 5 5 10.793 5 17.9375C5 25.082 10.793 30.875 17.9375 30.875C25.082 30.875 30.875 25.082 30.875 17.9375C30.875 10.793 25.082 5 17.9375 5Z" stroke="#595959" stroke-width="2" stroke-miterlimit="10"/>
<path d="M15 15H17.25V23.1562" stroke="#595959" stroke-width="2" stroke-linecap="round" stroke-linejoin="round"/>
<path d="M15 24H21.1875" stroke="#595959" stroke-width="2" stroke-miterlimit="10" stroke-linecap="round"/>
<path d="M17.8281 9C17.4666 9 17.1131 9.10722 16.8125 9.30809C16.5118 9.50897 16.2775 9.79449 16.1392 10.1285C16.0008 10.4626 15.9646 10.8302 16.0351 11.1848C16.1057 11.5394 16.2798 11.8651 16.5354 12.1208C16.7911 12.3765 17.1169 12.5506 17.4715 12.6211C17.8261 12.6917 18.1937 12.6555 18.5277 12.5171C18.8618 12.3787 19.1473 12.1444 19.3482 11.8438C19.549 11.5431 19.6563 11.1897 19.6563 10.8281C19.6563 10.3433 19.4636 9.87829 19.1208 9.53545C18.778 9.19261 18.313 9 17.8281 9Z" fill="#595959"/>
</svg>
