<svg width="36" height="36" viewBox="0 0 36 36" fill="none" xmlns="http://www.w3.org/2000/svg">
<path d="M32.1847 12.1477C31.9348 12.0494 31.6686 11.9993 31.4001 12H31.3719C29.9537 12.0211 28.3633 13.3493 27.5286 15.3581C26.5281 17.7614 26.9887 20.2202 28.5651 20.8524C28.8147 20.9506 29.0807 21.0007 29.349 21C30.7743 21 32.3865 19.6641 33.2282 17.6419C34.2217 15.2386 33.7541 12.7798 32.1847 12.1477Z" stroke="#595959" stroke-width="2" stroke-miterlimit="10"/>
<path d="M23.2283 21.4634C21.2736 18.2199 20.4298 17 18.1939 17C15.9579 17 15.1072 18.2277 13.1525 21.4634C11.479 24.2309 8.09701 24.4616 7.25326 26.8121C7.08208 27.2426 6.99612 27.7023 7.00013 28.1656C7.00013 30.0774 8.46263 31.625 10.2626 31.625C12.4986 31.625 15.5431 29.8398 18.2009 29.8398C20.8587 29.8398 23.8892 31.625 26.1251 31.625C27.9251 31.625 29.3806 30.0781 29.3806 28.1656C29.3822 27.7019 29.2939 27.2422 29.1204 26.8121C28.2767 24.4531 24.9017 24.2309 23.2283 21.4634Z" stroke="#595959" stroke-width="2" stroke-miterlimit="10"/>
<path d="M13.4128 14.2813C13.507 14.2813 13.601 14.2743 13.6941 14.2602C15.3261 14.0232 16.3449 11.762 15.975 9.2082C15.627 6.8007 14.1659 5 12.638 5C12.5439 4.99992 12.4498 5.00698 12.3568 5.02109C10.7248 5.25805 9.70597 7.5193 10.0758 10.073C10.4239 12.4735 11.885 14.2813 13.4128 14.2813Z" stroke="#595959" stroke-width="2" stroke-miterlimit="10"/>
<path d="M25.9729 10.073C26.3428 7.5193 25.3239 5.25805 23.692 5.02109C23.5989 5.00698 23.5049 4.99992 23.4107 5C21.8828 5 20.4246 6.8007 20.0758 9.2082C19.706 11.762 20.7248 14.0232 22.3568 14.2602C22.4498 14.2743 22.5439 14.2813 22.638 14.2813C24.1659 14.2813 25.627 12.4735 25.9729 10.073Z" stroke="#595959" stroke-width="2" stroke-miterlimit="10"/>
<path d="M7.18682 20.8524C8.76112 20.2195 9.22096 17.7586 8.22182 15.3581C7.38089 13.3359 5.77003 12 4.3469 12C4.07859 11.9993 3.81258 12.0494 3.56292 12.1477C1.98862 12.7805 1.52878 15.2414 2.52792 17.6419C3.36886 19.6641 4.97972 21 6.40284 21C6.67115 21.0007 6.93717 20.9506 7.18682 20.8524Z" stroke="#595959" stroke-width="2" stroke-miterlimit="10"/>
</svg>
