<svg width="36" height="36" viewBox="0 0 36 36" fill="none" xmlns="http://www.w3.org/2000/svg">
<path d="M3 24V30.75C3.0026 31.6443 3.35901 32.5012 3.99138 33.1336C4.62376 33.766 5.48069 34.1224 6.375 34.125H28.875C29.7693 34.1224 30.6262 33.766 31.2586 33.1336C31.891 32.5012 32.2474 31.6443 32.25 30.75V24" stroke="#595959" stroke-width="2" stroke-linejoin="round"/>
<path d="M3 24H13.125" stroke="#595959" stroke-width="2" stroke-linecap="round" stroke-linejoin="round"/>
<path d="M22 24H32.125" stroke="#595959" stroke-width="2" stroke-linecap="round" stroke-linejoin="round"/>
<path d="M13 24C13 25.1935 13.4741 26.3381 14.318 27.182C15.1619 28.0259 16.3065 28.5 17.5 28.5C18.6935 28.5 19.8381 28.0259 20.682 27.182C21.5259 26.3381 22 25.1935 22 24" stroke="#595959" stroke-width="2" stroke-linecap="round" stroke-linejoin="round"/>
<path d="M26.625 2H8.625C6.79688 2 5.60156 2.98438 5.25 4.8125L3 13.25V20C3.0026 20.8943 3.35901 21.7512 3.99138 22.3836C4.62376 23.016 5.48069 23.3724 6.375 23.375H28.875C29.7693 23.3724 30.6262 23.016 31.2586 22.3836C31.891 21.7512 32.2474 20.8943 32.25 20V13.25L30 4.8125C29.6484 2.91406 28.3828 2 26.625 2Z" stroke="#595959" stroke-width="2" stroke-linejoin="round"/>
<path d="M3 14H13.125" stroke="#595959" stroke-width="2" stroke-linecap="round" stroke-linejoin="round"/>
<path d="M22 14H32.125" stroke="#595959" stroke-width="2" stroke-linecap="round" stroke-linejoin="round"/>
<path d="M13 14C13 15.1935 13.4741 16.3381 14.318 17.182C15.1619 18.0259 16.3065 18.5 17.5 18.5C18.6935 18.5 19.8381 18.0259 20.682 17.182C21.5259 16.3381 22 15.1935 22 14" stroke="#595959" stroke-width="2" stroke-linecap="round" stroke-linejoin="round"/>
</svg>
